<svg xmlns="http://www.w3.org/2000/svg" xmlns:xlink="http://www.w3.org/1999/xlink" width="338" height="462" style="background:#fff" stroke-linecap="square" stroke-linejoin="round" stroke-miterlimit="10" font-weight="700" font-size="12" font-family="Noto Sans" text-anchor="middle"><defs><filter id="b"><feGaussianBlur stdDeviation="2"/></filter></defs><g id="g"><g id="a"><path d="M24.236 60.86h33.606v33.605H24.236zM275.943 60.859h33.606v33.606h-33.606zM292.746 60.859v33.606M225.601 60.859h33.606v33.606h-33.606zM225.601 77.662h33.606M175.26 60.86h33.606v33.605H175.26zM192.063 60.859v33.606M175.26 77.662h33.606"/></g><use xlink:href="#a" transform="translate(0 2)" opacity=".5" stroke="#000" filter="url(#b)"/><use xlink:href="#a" fill="#cfe2f3" stroke="#595959"/><path d="M-330.718 120.04c0-8.359 1.172-15.135 2.617-15.135h159.145c1.446 0 2.617-6.775 2.617-15.133 0 8.358 1.172 15.133 2.617 15.133h129.85c1.444 0 2.616 6.776 2.616 15.134" id="c"/><use xlink:href="#c" transform="translate(350 2)" opacity=".5" fill="none" stroke="#000" filter="url(#b)"/><use xlink:href="#c" transform="translate(350)" fill="none" stroke="#595959"/><g id="d"><path d="M124.918 60.859h33.606v33.606h-33.606zM141.721 60.859v33.606M158.524 77.662h-16.803M74.577 19.478h33.606v33.607H74.577zM74.577 36.281h33.606M91.38 19.478v16.827M124.918 19.478h33.606v33.607h-33.606zM124.918 36.281h33.606M141.721 53.085V36.4M74.577 60.86h33.606v33.605H74.577zM74.577 77.662H91.38M91.38 60.859v33.606"/></g><use xlink:href="#d" transform="translate(0 2)" opacity=".5" stroke="#000" filter="url(#b)"/><use xlink:href="#d" fill="#cfe2f3" stroke="#595959"/><use xlink:href="#e" transform="translate(0 2)" opacity=".5" filter="url(#b)"/><text x="192.069" y="54.658" id="e" font-family="Liberation Sans"><tspan x="192.069" y="54.658">(recursive)</tspan></text></g><g id="h"><g id="f"><path d="M225.601 118.017h33.606v33.607h-33.606zM225.601 134.82h33.606M259.207 125.328h-33.606M259.207 143.062h-33.606M275.943 117.345h33.606v33.606h-33.606zM301.147 118.092v33.03M292.746 150.951v-33.409M284.344 117.72v33.03"/></g><use xlink:href="#f" transform="translate(0 2)" opacity=".5" stroke="#000" filter="url(#b)"/><use xlink:href="#f" fill="#cfe2f3" stroke="#595959"/><use xlink:href="#g" transform="translate(0 96.25)"/></g><use transform="translate(0 94)" xlink:href="#h"/><use xlink:href="#h" transform="translate(0 189.5)"/><use xlink:href="#a" transform="translate(0 353.09)" opacity=".5" stroke="#000" filter="url(#b)"/><use xlink:href="#a" transform="translate(0 351.09)" fill="#cfe2f3" stroke="#595959"/><use xlink:href="#i" transform="translate(0 2)" opacity=".5" filter="url(#b)"/><g id="i"><text><tspan x="41" y="55.839">128×128</tspan></text><text><tspan x="41" y="152.903">64×64</tspan></text><text><tspan x="41" y="246.915">32×32</tspan></text><text><tspan x="41" y="342.403">16×16</tspan></text><text><tspan x="41" y="407.201">8×8</tspan></text></g></svg>
