<svg xmlns:xlink="http://www.w3.org/1999/xlink" width="541.212" height="349.595" style="background:#fff" viewBox="0 0 405.909 262.196"><defs><style>*{stroke-linecap:butt;stroke-linejoin:round}</style></defs><g id="figure_1"><path id="patch_1" fill="none" d="M0 262.196h405.91V0H0z"/><g id="axes_1"><path id="patch_2" fill="#fff" d="M56.506 224.64h334.8V7.2h-334.8z"/><g id="PolyCollection_1"><defs><path id="m9b50b26f18" stroke="#1f77b4" d="M52.87-37.876v.32H375.19h-1.62l-1.62-.002h-1.62l-1.62.002h-1.62l-1.619-.002h-4.86l-1.619.001-1.62-.001h-1.62l-1.619.002h-1.62l-1.62-.001-1.62-.001-1.619.001h-6.479l-1.62-.001h-1.619l-1.62.002h-1.62l-1.62-.002h-1.619l-1.62.001h-1.62l-1.619-.001h-1.62l-1.62.002h-9.718l-1.62-.001-1.619-.001h-1.62l-1.62.002h-8.098l-1.62-.002h-1.62l-1.619.001H255.332l-1.62-.001h-1.62l-1.619.002h-1.62l-1.62-.002-1.62-.003-1.619-.002-1.62.001-1.62.001-1.619-.001h-1.62l-1.62-.003-1.62-.006-1.619.003-1.62.001-1.62-.004-1.619-.006-1.62.004-1.62.006-1.619.001-1.62.004h-1.62l-1.62-.01-1.619-.01-1.62-.005-1.62-.006H211.6l-1.62.008-1.62.007-1.619.01-1.62-.004-1.62-.02-1.62-.01-1.619-.01-1.62-.033-1.62.026-1.619.032-1.62-.006-1.62-.014-1.62.005-1.619.014-1.62.008-1.62-.013-1.619-.027-1.62.012-1.62.015-1.619.002-1.62.003-1.62.004-1.62-.01-1.619-.008-1.62-.013-1.62-.016-1.619.01h-1.62l-1.62-.011-1.619-.027-1.62-.013-1.62.012-1.62-.03-1.619-.003-1.62.043-1.62.026-1.619.004-1.62-.05-1.62-.057-1.62.03-1.619.05-1.62-.028-1.62-.07-1.619-.027-1.62.028-1.62.027-1.619-.002-1.62-.036-1.62-.039-1.62-.077-1.619-.064-1.62-.033-1.62-.03-1.619-.002-1.62.029-1.62-.008-1.619-.044-1.62-.033-1.62.058-1.62.008-1.619-.125-1.62-.117-1.62-.034-1.619.045-1.62.05-1.62.034-1.62-.087-1.619-.102-1.62-.038-1.62-.028-1.619-.06-1.62.254-1.62.084-1.619.014-1.62.032-1.62-.123-1.62.106-1.619.038-1.62-.027-1.62-.177-1.619-.356-1.62-.405-1.62-.553-1.619-.51-1.62-.603-1.62-.808-1.62-1.03-1.619-1.27-1.62-.905-1.62.033-1.619-2.017-1.62-9.186-1.62-22.459-1.62-55.943-1.619-110.379-1.62 79.772-1.62 112.294-1.619 14.7z"/></defs><g clip-path="url(#pd7883ffb3d)"><use y="262.196" fill="#1f77b4" fill-opacity=".25" stroke="#1f77b4" xlink:href="#m9b50b26f18"/></g></g><g id="matplotlib.axis_1"><g id="xtick_1"><g id="line2d_1"><defs><path id="m72ae664b82" stroke="#000" stroke-width=".8" d="M0 0v3.5"/></defs><use x="56.506" y="224.64" stroke="#000" stroke-width=".8" xlink:href="#m72ae664b82"/></g><g id="text_1"><defs><path id="DejaVuSans-48" d="M31.781 66.406q-7.61 0-11.453-7.5Q16.5 51.422 16.5 36.375q0-14.984 3.828-22.484 3.844-7.5 11.453-7.5 7.672 0 11.5 7.5 3.844 7.5 3.844 22.484 0 15.047-3.844 22.531-3.828 7.5-11.5 7.5zm0 7.813q12.266 0 18.735-9.703 6.468-9.688 6.468-28.141 0-18.406-6.468-28.11-6.47-9.687-18.735-9.687-12.25 0-18.718 9.688-6.47 9.703-6.47 28.109 0 18.453 6.47 28.14Q19.53 74.22 31.78 74.22z"/></defs><use transform="matrix(.1 0 0 -.1 53.325 239.238)" xlink:href="#DejaVuSans-48"/></g></g><g id="xtick_2"><use id="line2d_2" x="122.402" y="224.64" stroke="#000" stroke-width=".8" xlink:href="#m72ae664b82"/><g id="text_2"><defs><path id="DejaVuSans-49" d="M12.406 8.297h16.11v55.625l-17.532-3.516v8.985l17.438 3.515h9.86V8.296H54.39V0H12.406z"/></defs><g transform="matrix(.1 0 0 -.1 109.677 239.238)"><use xlink:href="#DejaVuSans-49"/><use x="63.623" xlink:href="#DejaVuSans-48"/><use x="127.246" xlink:href="#DejaVuSans-48"/><use x="190.869" xlink:href="#DejaVuSans-48"/></g></g></g><g id="xtick_3"><use id="line2d_3" x="188.297" y="224.64" stroke="#000" stroke-width=".8" xlink:href="#m72ae664b82"/><g id="text_3"><defs><path id="DejaVuSans-50" d="M19.188 8.297h34.421V0H7.33v8.297q5.609 5.812 15.296 15.594 9.703 9.797 12.188 12.64 4.734 5.313 6.609 9 1.89 3.688 1.89 7.25 0 5.813-4.078 9.469-4.078 3.672-10.625 3.672-4.64 0-9.797-1.61-5.14-1.609-11-4.89v9.969Q13.767 71.78 18.938 73q5.188 1.219 9.485 1.219 11.328 0 18.062-5.672 6.735-5.656 6.735-15.125 0-4.5-1.688-8.531-1.672-4.016-6.125-9.485-1.218-1.422-7.765-8.187-6.532-6.766-18.453-18.922z"/></defs><g transform="matrix(.1 0 0 -.1 175.572 239.238)"><use xlink:href="#DejaVuSans-50"/><use x="63.623" xlink:href="#DejaVuSans-48"/><use x="127.246" xlink:href="#DejaVuSans-48"/><use x="190.869" xlink:href="#DejaVuSans-48"/></g></g></g><g id="xtick_4"><use id="line2d_4" x="254.193" y="224.64" stroke="#000" stroke-width=".8" xlink:href="#m72ae664b82"/><g id="text_4"><defs><path id="DejaVuSans-51" d="M40.578 39.313Q47.656 37.797 51.625 33q3.984-4.781 3.984-11.813 0-10.78-7.422-16.703-7.421-5.906-21.093-5.906-4.578 0-9.438.906-4.86.907-10.031 2.72v9.515q4.094-2.39 8.969-3.61 4.89-1.218 10.218-1.218 9.266 0 14.125 3.656 4.86 3.656 4.86 10.64 0 6.454-4.516 10.079-4.515 3.64-12.562 3.64h-8.5v8.11h8.89q7.266 0 11.125 2.906 3.86 2.906 3.86 8.375 0 5.61-3.985 8.61-3.968 3.015-11.39 3.015-4.063 0-8.703-.89-4.641-.876-10.203-2.72v8.782q5.624 1.562 10.53 2.344 4.907.78 9.25.78 11.235 0 17.766-5.109 6.547-5.093 6.547-13.78 0-6.063-3.468-10.235-3.47-4.172-9.86-5.782z"/></defs><g transform="matrix(.1 0 0 -.1 241.468 239.238)"><use xlink:href="#DejaVuSans-51"/><use x="63.623" xlink:href="#DejaVuSans-48"/><use x="127.246" xlink:href="#DejaVuSans-48"/><use x="190.869" xlink:href="#DejaVuSans-48"/></g></g></g><g id="xtick_5"><use id="line2d_5" x="320.089" y="224.64" stroke="#000" stroke-width=".8" xlink:href="#m72ae664b82"/><g id="text_5"><defs><path id="DejaVuSans-52" d="M37.797 64.313L12.89 25.39h24.906zm-2.594 8.593H47.61V25.391h10.407v-8.203H47.609V0h-9.812v17.188H4.89v9.515z"/></defs><g transform="matrix(.1 0 0 -.1 307.364 239.238)"><use xlink:href="#DejaVuSans-52"/><use x="63.623" xlink:href="#DejaVuSans-48"/><use x="127.246" xlink:href="#DejaVuSans-48"/><use x="190.869" xlink:href="#DejaVuSans-48"/></g></g></g><g id="xtick_6"><use id="line2d_6" x="385.984" y="224.64" stroke="#000" stroke-width=".8" xlink:href="#m72ae664b82"/><g id="text_6"><defs><path id="DejaVuSans-53" d="M10.797 72.906h38.719v-8.312H19.828v-17.86q2.14.735 4.281 1.094 2.157.36 4.313.36 12.203 0 19.328-6.688 7.14-6.688 7.14-18.11 0-11.765-7.328-18.296-7.328-6.516-20.656-6.516-4.593 0-9.36.781-4.75.782-9.827 2.344v9.922q4.39-2.39 9.078-3.563 4.687-1.171 9.906-1.171 8.453 0 13.375 4.437 4.938 4.438 4.938 12.063 0 7.609-4.938 12.047-4.922 4.453-13.375 4.453-3.953 0-7.89-.875-3.922-.875-8.016-2.735z"/></defs><g transform="matrix(.1 0 0 -.1 373.26 239.238)"><use xlink:href="#DejaVuSans-53"/><use x="63.623" xlink:href="#DejaVuSans-48"/><use x="127.246" xlink:href="#DejaVuSans-48"/><use x="190.869" xlink:href="#DejaVuSans-48"/></g></g></g><g id="text_7"><defs><path id="DejaVuSans-82" d="M44.39 34.188q3.172-1.079 6.172-4.594 3-3.516 6.032-9.672L66.609 0H56l-9.313 18.703q-3.624 7.328-7.015 9.719-3.39 2.39-9.25 2.39h-10.75V0h-9.86v72.906h22.266q12.5 0 18.656-5.234 6.157-5.219 6.157-15.766 0-6.89-3.203-11.437-3.204-4.532-9.297-6.282zM19.673 64.797V38.922h12.406q7.125 0 10.766 3.297 3.64 3.297 3.64 9.687 0 6.39-3.64 9.64-3.64 3.25-10.766 3.25z"/><path id="DejaVuSans-111" d="M30.61 48.39q-7.22 0-11.422-5.64-4.204-5.64-4.204-15.453 0-9.813 4.172-15.453 4.188-5.64 11.453-5.64 7.188 0 11.375 5.655 4.203 5.672 4.203 15.438 0 9.719-4.203 15.406-4.187 5.688-11.375 5.688zm0 7.61q11.718 0 18.406-7.625 6.703-7.61 6.703-21.078 0-13.422-6.703-21.078-6.688-7.64-18.407-7.64-11.765 0-18.437 7.64-6.656 7.656-6.656 21.078 0 13.469 6.656 21.078Q18.844 56 30.609 56z"/><path id="DejaVuSans-108" d="M9.422 75.984h8.984V0H9.422z"/><path id="DejaVuSans-98" d="M48.688 27.297q0 9.906-4.079 15.547-4.078 5.64-11.203 5.64-7.14 0-11.218-5.64-4.079-5.64-4.079-15.547 0-9.906 4.078-15.547 4.079-5.64 11.22-5.64 7.124 0 11.202 5.64t4.078 15.547zM18.108 46.39q2.844 4.875 7.157 7.234Q29.594 56 35.594 56q9.968 0 16.187-7.906 6.235-7.907 6.235-20.797T51.78 6.484q-6.218-7.906-16.187-7.906-6 0-10.328 2.375-4.313 2.375-7.157 7.25V0H9.08v75.984h9.03z"/><path id="DejaVuSans-97" d="M34.281 27.484q-10.89 0-15.093-2.484-4.204-2.484-4.204-8.5 0-4.781 3.157-7.594 3.156-2.797 8.562-2.797 7.485 0 12 5.297 4.516 5.297 4.516 14.078v2zm17.922 3.72V0H43.22v8.297Q40.14 3.328 35.547.953q-4.594-2.375-11.234-2.375-8.391 0-13.36 4.719Q6 8.016 6 15.922q0 9.219 6.172 13.906 6.187 4.688 18.437 4.688h12.61v.89q0 6.203-4.078 9.594-4.078 3.39-11.453 3.39-4.688 0-9.141-1.124-4.438-1.125-8.531-3.375v8.312q4.921 1.906 9.562 2.844 4.64.953 9.031.953 11.875 0 17.735-6.156 5.86-6.14 5.86-18.64z"/><path id="DejaVuSans-99" d="M48.781 52.594v-8.407q-3.812 2.11-7.64 3.157-3.828 1.047-7.735 1.047-8.75 0-13.593-5.547-4.829-5.532-4.829-15.547 0-10.016 4.829-15.563 4.843-5.53 13.593-5.53 3.907 0 7.735 1.046 3.828 1.047 7.64 3.156V2.094Q45.016.344 40.984-.531q-4.015-.89-8.562-.89-12.36 0-19.64 7.765-7.266 7.765-7.266 20.953 0 13.375 7.343 21.031Q20.22 56 33.016 56q4.14 0 8.093-.86 3.953-.843 7.672-2.546z"/><path id="DejaVuSans-107" d="M9.078 75.984h9.031V31.11l26.813 23.578H56.39l-29-25.578L57.625 0H45.906L18.11 26.703V0H9.08z"/><path id="DejaVuSans-115" d="M44.281 53.078v-8.5q-3.797 1.953-7.906 2.922-4.094.984-8.5.984-6.688 0-10.031-2.047-3.344-2.046-3.344-6.156 0-3.125 2.39-4.906 2.391-1.781 9.626-3.39l3.078-.688q9.562-2.047 13.593-5.781 4.032-3.735 4.032-10.422 0-7.625-6.032-12.078-6.03-4.438-16.578-4.438-4.39 0-9.156.86Q10.688.296 5.422 2v9.281q4.984-2.594 9.812-3.89 4.829-1.282 9.579-1.282 6.343 0 9.75 2.172 3.421 2.172 3.421 6.125 0 3.656-2.468 5.61-2.453 1.953-10.813 3.765l-3.125.735q-8.344 1.75-12.062 5.39-3.704 3.64-3.704 9.985 0 7.718 5.47 11.906Q16.75 56 26.811 56q4.97 0 9.36-.734 4.406-.72 8.11-2.188z"/><path id="DejaVuSans-105" d="M9.422 54.688h8.984V0H9.422zm0 21.296h8.984v-11.39H9.422z"/><path id="DejaVuSans-122" d="M5.516 54.688h42.672v-8.204L14.406 7.172h33.782V0H4.297v8.203l33.797 39.313H5.516z"/><path id="DejaVuSans-101" d="M56.203 29.594v-4.39H14.891q.593-9.282 5.593-14.142 5-4.859 13.938-4.859 5.172 0 10.031 1.266 4.86 1.265 9.656 3.812v-8.5Q49.266.734 44.187-.344 39.11-1.422 33.892-1.422q-13.094 0-20.735 7.61-7.64 7.625-7.64 20.625 0 13.421 7.25 21.296Q20.016 56 32.328 56q11.031 0 17.453-7.11 6.422-7.093 6.422-19.296zm-8.984 2.64q-.094 7.36-4.125 11.75-4.032 4.407-10.672 4.407-7.516 0-12.031-4.25-4.516-4.25-5.203-11.97z"/></defs><g transform="matrix(.1 0 0 -.1 188.827 252.917)"><use xlink:href="#DejaVuSans-82"/><use x="69.42" xlink:href="#DejaVuSans-111"/><use x="130.602" xlink:href="#DejaVuSans-108"/><use x="158.385" xlink:href="#DejaVuSans-108"/><use x="186.168" xlink:href="#DejaVuSans-98"/><use x="249.645" xlink:href="#DejaVuSans-97"/><use x="310.924" xlink:href="#DejaVuSans-99"/><use x="365.904" xlink:href="#DejaVuSans-107"/><use x="423.814" xlink:href="#DejaVuSans-32"/><use x="455.602" xlink:href="#DejaVuSans-115"/><use x="507.701" xlink:href="#DejaVuSans-105"/><use x="535.484" xlink:href="#DejaVuSans-122"/><use x="587.975" xlink:href="#DejaVuSans-101"/><use x="649.498" xlink:href="#DejaVuSans-115"/></g></g></g><g id="matplotlib.axis_2"><g id="ytick_1"><g id="line2d_7"><defs><path id="md535f0a6c3" stroke="#000" stroke-width=".8" d="M0 0h-3.5"/></defs><use x="56.506" y="224.64" stroke="#000" stroke-width=".8" xlink:href="#md535f0a6c3"/></g><g id="text_8"><defs><path id="DejaVuSans-46" d="M10.688 12.406H21V0H10.687z"/></defs><g transform="matrix(.1 0 0 -.1 20.878 228.44)"><use xlink:href="#DejaVuSans-48"/><use x="63.623" xlink:href="#DejaVuSans-46"/><use x="95.41" xlink:href="#DejaVuSans-48"/><use x="159.033" xlink:href="#DejaVuSans-48"/><use x="222.656" xlink:href="#DejaVuSans-48"/></g></g></g><g id="ytick_2"><use id="line2d_8" x="56.506" y="196.315" stroke="#000" stroke-width=".8" xlink:href="#md535f0a6c3"/><g id="text_9" transform="matrix(.1 0 0 -.1 20.878 200.115)"><use xlink:href="#DejaVuSans-48"/><use x="63.623" xlink:href="#DejaVuSans-46"/><use x="95.41" xlink:href="#DejaVuSans-48"/><use x="159.033" xlink:href="#DejaVuSans-48"/><use x="222.656" xlink:href="#DejaVuSans-50"/></g></g><g id="ytick_3"><use id="line2d_9" x="56.506" y="167.991" stroke="#000" stroke-width=".8" xlink:href="#md535f0a6c3"/><g id="text_10" transform="matrix(.1 0 0 -.1 20.878 171.79)"><use xlink:href="#DejaVuSans-48"/><use x="63.623" xlink:href="#DejaVuSans-46"/><use x="95.41" xlink:href="#DejaVuSans-48"/><use x="159.033" xlink:href="#DejaVuSans-48"/><use x="222.656" xlink:href="#DejaVuSans-52"/></g></g><g id="ytick_4"><use id="line2d_10" x="56.506" y="139.666" stroke="#000" stroke-width=".8" xlink:href="#md535f0a6c3"/><g id="text_11"><defs><path id="DejaVuSans-54" d="M33.016 40.375q-6.641 0-10.532-4.547-3.875-4.531-3.875-12.437 0-7.86 3.875-12.438 3.891-4.562 10.532-4.562 6.64 0 10.515 4.562 3.875 4.578 3.875 12.438 0 7.906-3.875 12.437-3.875 4.547-10.515 4.547zm19.578 30.922v-8.984q-3.719 1.75-7.5 2.671-3.782.938-7.5.938-9.766 0-14.922-6.594-5.14-6.594-5.875-19.922 2.875 4.25 7.219 6.516 4.359 2.266 9.578 2.266 10.984 0 17.36-6.672 6.374-6.657 6.374-18.125 0-11.235-6.64-18.032-6.641-6.78-17.672-6.78-12.657 0-19.344 9.687-6.688 9.703-6.688 28.109 0 17.281 8.204 27.563 8.203 10.28 22.015 10.28 3.719 0 7.5-.734t7.89-2.187z"/></defs><g transform="matrix(.1 0 0 -.1 20.878 143.466)"><use xlink:href="#DejaVuSans-48"/><use x="63.623" xlink:href="#DejaVuSans-46"/><use x="95.41" xlink:href="#DejaVuSans-48"/><use x="159.033" xlink:href="#DejaVuSans-48"/><use x="222.656" xlink:href="#DejaVuSans-54"/></g></g></g><g id="ytick_5"><use id="line2d_11" x="56.506" y="111.342" stroke="#000" stroke-width=".8" xlink:href="#md535f0a6c3"/><g id="text_12"><defs><path id="DejaVuSans-56" d="M31.781 34.625q-7.031 0-11.062-3.766-4.016-3.765-4.016-10.343 0-6.594 4.016-10.36Q24.75 6.391 31.78 6.391q7.032 0 11.078 3.78 4.063 3.798 4.063 10.345 0 6.578-4.031 10.343-4.016 3.766-11.11 3.766zm-9.86 4.188q-6.343 1.562-9.89 5.906Q8.5 49.079 8.5 55.329q0 8.733 6.219 13.812 6.234 5.078 17.062 5.078 10.89 0 17.094-5.078 6.203-5.079 6.203-13.813 0-6.25-3.547-10.61-3.531-4.343-9.828-5.906 7.125-1.656 11.094-6.5 3.984-4.828 3.984-11.796 0-10.61-6.468-16.282-6.47-5.656-18.532-5.656-12.047 0-18.531 5.656-6.469 5.672-6.469 16.282 0 6.968 4 11.797 4.016 4.843 11.14 6.5zM18.314 54.39q0-5.657 3.53-8.828 3.548-3.172 9.938-3.172 6.36 0 9.938 3.172 3.593 3.171 3.593 8.828 0 5.672-3.593 8.843-3.578 3.172-9.938 3.172-6.39 0-9.937-3.172-3.532-3.172-3.532-8.843z"/></defs><g transform="matrix(.1 0 0 -.1 20.878 115.141)"><use xlink:href="#DejaVuSans-48"/><use x="63.623" xlink:href="#DejaVuSans-46"/><use x="95.41" xlink:href="#DejaVuSans-48"/><use x="159.033" xlink:href="#DejaVuSans-48"/><use x="222.656" xlink:href="#DejaVuSans-56"/></g></g></g><g id="ytick_6"><use id="line2d_12" x="56.506" y="83.017" stroke="#000" stroke-width=".8" xlink:href="#md535f0a6c3"/><g id="text_13" transform="matrix(.1 0 0 -.1 20.878 86.817)"><use xlink:href="#DejaVuSans-48"/><use x="63.623" xlink:href="#DejaVuSans-46"/><use x="95.41" xlink:href="#DejaVuSans-48"/><use x="159.033" xlink:href="#DejaVuSans-49"/><use x="222.656" xlink:href="#DejaVuSans-48"/></g></g><g id="ytick_7"><use id="line2d_13" x="56.506" y="54.693" stroke="#000" stroke-width=".8" xlink:href="#md535f0a6c3"/><g id="text_14" transform="matrix(.1 0 0 -.1 20.878 58.492)"><use xlink:href="#DejaVuSans-48"/><use x="63.623" xlink:href="#DejaVuSans-46"/><use x="95.41" xlink:href="#DejaVuSans-48"/><use x="159.033" xlink:href="#DejaVuSans-49"/><use x="222.656" xlink:href="#DejaVuSans-50"/></g></g><g id="ytick_8"><use id="line2d_14" x="56.506" y="26.368" stroke="#000" stroke-width=".8" xlink:href="#md535f0a6c3"/><g id="text_15" transform="matrix(.1 0 0 -.1 20.878 30.168)"><use xlink:href="#DejaVuSans-48"/><use x="63.623" xlink:href="#DejaVuSans-46"/><use x="95.41" xlink:href="#DejaVuSans-48"/><use x="159.033" xlink:href="#DejaVuSans-49"/><use x="222.656" xlink:href="#DejaVuSans-52"/></g></g><g id="text_16"><defs><path id="DejaVuSans-68" d="M19.672 64.797V8.109h11.922q15.093 0 22.093 6.829 7 6.843 7 21.593 0 14.64-7 21.453-7 6.813-22.093 6.813zm-9.86 8.11h20.266q21.188 0 31.094-8.813 9.922-8.813 9.922-27.563 0-18.86-9.969-27.703Q51.172 0 30.078 0H9.813z"/><path id="DejaVuSans-110" d="M54.89 33.016V0h-8.984v32.719q0 7.765-3.031 11.61-3.031 3.858-9.078 3.858-7.281 0-11.484-4.64-4.204-4.625-4.204-12.64V0H9.08v54.688h9.03v-8.5q3.235 4.937 7.594 7.374Q30.078 56 35.797 56q9.422 0 14.25-5.828 4.844-5.828 4.844-17.156z"/><path id="DejaVuSans-116" d="M18.313 70.219V54.688h18.5v-6.985h-18.5V18.016q0-6.688 1.828-8.594 1.828-1.906 7.453-1.906h9.218V0h-9.218q-10.407 0-14.36 3.875-3.953 3.89-3.953 14.14v29.688H2.687v6.984h6.594V70.22z"/><path id="DejaVuSans-121" d="M32.172-5.078q-3.797-9.766-7.422-12.735-3.61-2.984-9.656-2.984H7.906v7.516h5.282q3.703 0 5.75 1.765Q21-9.766 23.483-3.219l1.61 4.094-22.11 53.813H12.5l17.094-42.766 17.093 42.766h9.516z"/></defs><g transform="matrix(0 -.1 -.1 0 14.798 134.929)"><use xlink:href="#DejaVuSans-68"/><use x="77.002" xlink:href="#DejaVuSans-101"/><use x="138.525" xlink:href="#DejaVuSans-110"/><use x="201.904" xlink:href="#DejaVuSans-115"/><use x="254.004" xlink:href="#DejaVuSans-105"/><use x="281.787" xlink:href="#DejaVuSans-116"/><use x="320.996" xlink:href="#DejaVuSans-121"/></g></g></g><path id="patch_3" fill="none" stroke="#000" stroke-linecap="square" stroke-width=".8" d="M56.506 224.64V7.2"/><path id="patch_4" fill="none" stroke="#000" stroke-linecap="square" stroke-width=".8" d="M391.306 224.64V7.2"/><path id="patch_5" fill="none" stroke="#000" stroke-linecap="square" stroke-width=".8" d="M56.506 224.64h334.8"/><path id="patch_6" fill="none" stroke="#000" stroke-linecap="square" stroke-width=".8" d="M56.506 7.2h334.8"/></g></g><defs><clipPath id="pd7883ffb3d"><path d="M56.506 7.2h334.8v217.44h-334.8z"/></clipPath></defs></svg>