<svg xmlns:xlink="http://www.w3.org/1999/xlink" width="576" height="384" style="background:#fff" viewBox="0 0 432 288"><defs><style>*{stroke-linecap:butt;stroke-linejoin:round}</style></defs><g id="figure_1"><path id="patch_1" fill="#fff" d="M0 288h432V0H0z"/><g id="axes_1"><path id="patch_2" fill="#fff" d="M54.013 246.4H421.2V10.8H54.012z"/><g id="matplotlib.axis_1"><g id="xtick_1"><g id="line2d_1"><defs><path id="m4d9b8e4e29" stroke="#000" stroke-width=".8" d="M0 0v3.5"/></defs><use x="70.703" y="246.4" stroke="#000" stroke-width=".8" xlink:href="#m4d9b8e4e29"/></g><g id="text_1"><defs><path id="DejaVuSans-48" d="M31.781 66.406q-7.61 0-11.453-7.5Q16.5 51.422 16.5 36.375q0-14.984 3.828-22.484 3.844-7.5 11.453-7.5 7.672 0 11.5 7.5 3.844 7.5 3.844 22.484 0 15.047-3.844 22.531-3.828 7.5-11.5 7.5zm0 7.813q12.266 0 18.735-9.703 6.468-9.688 6.468-28.141 0-18.406-6.468-28.11-6.47-9.687-18.735-9.687-12.25 0-18.718 9.688-6.47 9.703-6.47 28.109 0 18.453 6.47 28.14Q19.53 74.22 31.78 74.22z"/></defs><use transform="matrix(.1 0 0 -.1 67.522 260.998)" xlink:href="#DejaVuSans-48"/></g></g><g id="xtick_2"><use id="line2d_2" x="146.568" y="246.4" stroke="#000" stroke-width=".8" xlink:href="#m4d9b8e4e29"/><g id="text_2"><defs><path id="DejaVuSans-53" d="M10.797 72.906h38.719v-8.312H19.828v-17.86q2.14.735 4.281 1.094 2.157.36 4.313.36 12.203 0 19.328-6.688 7.14-6.688 7.14-18.11 0-11.765-7.328-18.296-7.328-6.516-20.656-6.516-4.593 0-9.36.781-4.75.782-9.827 2.344v9.922q4.39-2.39 9.078-3.563 4.687-1.171 9.906-1.171 8.453 0 13.375 4.437 4.938 4.438 4.938 12.063 0 7.609-4.938 12.047-4.922 4.453-13.375 4.453-3.953 0-7.89-.875-3.922-.875-8.016-2.735z"/></defs><use transform="matrix(.1 0 0 -.1 143.387 260.998)" xlink:href="#DejaVuSans-53"/></g></g><g id="xtick_3"><use id="line2d_3" x="222.433" y="246.4" stroke="#000" stroke-width=".8" xlink:href="#m4d9b8e4e29"/><g id="text_3"><defs><path id="DejaVuSans-49" d="M12.406 8.297h16.11v55.625l-17.532-3.516v8.985l17.438 3.515h9.86V8.296H54.39V0H12.406z"/></defs><g transform="matrix(.1 0 0 -.1 216.07 260.998)"><use xlink:href="#DejaVuSans-49"/><use x="63.623" xlink:href="#DejaVuSans-48"/></g></g></g><g id="xtick_4"><use id="line2d_4" x="298.298" y="246.4" stroke="#000" stroke-width=".8" xlink:href="#m4d9b8e4e29"/><g id="text_4" transform="matrix(.1 0 0 -.1 291.936 260.998)"><use xlink:href="#DejaVuSans-49"/><use x="63.623" xlink:href="#DejaVuSans-53"/></g></g><g id="xtick_5"><use id="line2d_5" x="374.164" y="246.4" stroke="#000" stroke-width=".8" xlink:href="#m4d9b8e4e29"/><g id="text_5"><defs><path id="DejaVuSans-50" d="M19.188 8.297h34.421V0H7.33v8.297q5.609 5.812 15.296 15.594 9.703 9.797 12.188 12.64 4.734 5.313 6.609 9 1.89 3.688 1.89 7.25 0 5.813-4.078 9.469-4.078 3.672-10.625 3.672-4.64 0-9.797-1.61-5.14-1.609-11-4.89v9.969Q13.767 71.78 18.938 73q5.188 1.219 9.485 1.219 11.328 0 18.062-5.672 6.735-5.656 6.735-15.125 0-4.5-1.688-8.531-1.672-4.016-6.125-9.485-1.218-1.422-7.765-8.187-6.532-6.766-18.453-18.922z"/></defs><g transform="matrix(.1 0 0 -.1 367.801 260.998)"><use xlink:href="#DejaVuSans-50"/><use x="63.623" xlink:href="#DejaVuSans-48"/></g></g></g><g id="text_6"><defs><path id="DejaVuSans-80" d="M19.672 64.797v-27.39h12.406q6.89 0 10.64 3.562 3.766 3.562 3.766 10.156 0 6.547-3.765 10.11-3.75 3.562-10.64 3.562zm-9.86 8.11h22.266q12.266 0 18.531-5.548 6.282-5.546 6.282-16.234 0-10.797-6.282-16.313-6.265-5.515-18.53-5.515H19.671V0h-9.86z"/><path id="DejaVuSans-97" d="M34.281 27.484q-10.89 0-15.093-2.484-4.204-2.484-4.204-8.5 0-4.781 3.157-7.594 3.156-2.797 8.562-2.797 7.485 0 12 5.297 4.516 5.297 4.516 14.078v2zm17.922 3.72V0H43.22v8.297Q40.14 3.328 35.547.953q-4.594-2.375-11.234-2.375-8.391 0-13.36 4.719Q6 8.016 6 15.922q0 9.219 6.172 13.906 6.187 4.688 18.437 4.688h12.61v.89q0 6.203-4.078 9.594-4.078 3.39-11.453 3.39-4.688 0-9.141-1.124-4.438-1.125-8.531-3.375v8.312q4.921 1.906 9.562 2.844 4.64.953 9.031.953 11.875 0 17.735-6.156 5.86-6.14 5.86-18.64z"/><path id="DejaVuSans-116" d="M18.313 70.219V54.688h18.5v-6.985h-18.5V18.016q0-6.688 1.828-8.594 1.828-1.906 7.453-1.906h9.218V0h-9.218q-10.407 0-14.36 3.875-3.953 3.89-3.953 14.14v29.688H2.687v6.984h6.594V70.22z"/><path id="DejaVuSans-99" d="M48.781 52.594v-8.407q-3.812 2.11-7.64 3.157-3.828 1.047-7.735 1.047-8.75 0-13.593-5.547-4.829-5.532-4.829-15.547 0-10.016 4.829-15.563 4.843-5.53 13.593-5.53 3.907 0 7.735 1.046 3.828 1.047 7.64 3.156V2.094Q45.016.344 40.984-.531q-4.015-.89-8.562-.89-12.36 0-19.64 7.765-7.266 7.765-7.266 20.953 0 13.375 7.343 21.031Q20.22 56 33.016 56q4.14 0 8.093-.86 3.953-.843 7.672-2.546z"/><path id="DejaVuSans-104" d="M54.89 33.016V0h-8.984v32.719q0 7.765-3.031 11.61-3.031 3.858-9.078 3.858-7.281 0-11.484-4.64-4.204-4.625-4.204-12.64V0H9.08v75.984h9.03V46.188q3.235 4.937 7.594 7.374Q30.078 56 35.797 56q9.422 0 14.25-5.828 4.844-5.828 4.844-17.156z"/><path id="DejaVuSans-101" d="M56.203 29.594v-4.39H14.891q.593-9.282 5.593-14.142 5-4.859 13.938-4.859 5.172 0 10.031 1.266 4.86 1.265 9.656 3.812v-8.5Q49.266.734 44.187-.344 39.11-1.422 33.892-1.422q-13.094 0-20.735 7.61-7.64 7.625-7.64 20.625 0 13.421 7.25 21.296Q20.016 56 32.328 56q11.031 0 17.453-7.11 6.422-7.093 6.422-19.296zm-8.984 2.64q-.094 7.36-4.125 11.75-4.032 4.407-10.672 4.407-7.516 0-12.031-4.25-4.516-4.25-5.203-11.97z"/><path id="DejaVuSans-115" d="M44.281 53.078v-8.5q-3.797 1.953-7.906 2.922-4.094.984-8.5.984-6.688 0-10.031-2.047-3.344-2.046-3.344-6.156 0-3.125 2.39-4.906 2.391-1.781 9.626-3.39l3.078-.688q9.562-2.047 13.593-5.781 4.032-3.735 4.032-10.422 0-7.625-6.032-12.078-6.03-4.438-16.578-4.438-4.39 0-9.156.86Q10.688.296 5.422 2v9.281q4.984-2.594 9.812-3.89 4.829-1.282 9.579-1.282 6.343 0 9.75 2.172 3.421 2.172 3.421 6.125 0 3.656-2.468 5.61-2.453 1.953-10.813 3.765l-3.125.735q-8.344 1.75-12.062 5.39-3.704 3.64-3.704 9.985 0 7.718 5.47 11.906Q16.75 56 26.811 56q4.97 0 9.36-.734 4.406-.72 8.11-2.188z"/></defs><g transform="matrix(.1 0 0 -.1 217.971 274.677)"><use xlink:href="#DejaVuSans-80"/><use x="60.24" xlink:href="#DejaVuSans-97"/><use x="121.52" xlink:href="#DejaVuSans-116"/><use x="160.729" xlink:href="#DejaVuSans-99"/><use x="215.709" xlink:href="#DejaVuSans-104"/><use x="279.088" xlink:href="#DejaVuSans-101"/><use x="340.611" xlink:href="#DejaVuSans-115"/></g></g></g><g id="matplotlib.axis_2"><g id="ytick_1"><path id="line2d_6" fill="none" stroke="#b0b0b0" stroke-linecap="square" stroke-width=".8" d="M54.013 231.333H421.2" clip-path="url(#p02daeaf4cd)"/><g id="line2d_7"><defs><path id="meffcea9939" stroke="#000" stroke-width=".8" d="M0 0h-3.5"/></defs><use x="54.013" y="231.333" stroke="#000" stroke-width=".8" xlink:href="#meffcea9939"/></g><g id="text_7"><defs><path id="DejaVuSans-46" d="M10.688 12.406H21V0H10.687z"/></defs><g transform="matrix(.1 0 0 -.1 24.747 235.132)"><use xlink:href="#DejaVuSans-49"/><use x="63.623" xlink:href="#DejaVuSans-46"/><use x="95.41" xlink:href="#DejaVuSans-48"/><use x="159.033" xlink:href="#DejaVuSans-48"/></g></g></g><g id="ytick_2"><path id="line2d_8" fill="none" stroke="#b0b0b0" stroke-linecap="square" stroke-width=".8" d="M54.013 198.99H421.2" clip-path="url(#p02daeaf4cd)"/><use id="line2d_9" x="54.013" y="198.991" stroke="#000" stroke-width=".8" xlink:href="#meffcea9939"/><g id="text_8" transform="matrix(.1 0 0 -.1 24.747 202.79)"><use xlink:href="#DejaVuSans-49"/><use x="63.623" xlink:href="#DejaVuSans-46"/><use x="95.41" xlink:href="#DejaVuSans-48"/><use x="159.033" xlink:href="#DejaVuSans-53"/></g></g><g id="ytick_3"><path id="line2d_10" fill="none" stroke="#b0b0b0" stroke-linecap="square" stroke-width=".8" d="M54.013 166.649H421.2" clip-path="url(#p02daeaf4cd)"/><use id="line2d_11" x="54.013" y="166.649" stroke="#000" stroke-width=".8" xlink:href="#meffcea9939"/><g id="text_9" transform="matrix(.1 0 0 -.1 24.747 170.448)"><use xlink:href="#DejaVuSans-49"/><use x="63.623" xlink:href="#DejaVuSans-46"/><use x="95.41" xlink:href="#DejaVuSans-49"/><use x="159.033" xlink:href="#DejaVuSans-48"/></g></g><g id="ytick_4"><path id="line2d_12" fill="none" stroke="#b0b0b0" stroke-linecap="square" stroke-width=".8" d="M54.013 134.307H421.2" clip-path="url(#p02daeaf4cd)"/><use id="line2d_13" x="54.013" y="134.307" stroke="#000" stroke-width=".8" xlink:href="#meffcea9939"/><g id="text_10" transform="matrix(.1 0 0 -.1 24.747 138.106)"><use xlink:href="#DejaVuSans-49"/><use x="63.623" xlink:href="#DejaVuSans-46"/><use x="95.41" xlink:href="#DejaVuSans-49"/><use x="159.033" xlink:href="#DejaVuSans-53"/></g></g><g id="ytick_5"><path id="line2d_14" fill="none" stroke="#b0b0b0" stroke-linecap="square" stroke-width=".8" d="M54.013 101.965H421.2" clip-path="url(#p02daeaf4cd)"/><use id="line2d_15" x="54.013" y="101.965" stroke="#000" stroke-width=".8" xlink:href="#meffcea9939"/><g id="text_11" transform="matrix(.1 0 0 -.1 24.747 105.764)"><use xlink:href="#DejaVuSans-49"/><use x="63.623" xlink:href="#DejaVuSans-46"/><use x="95.41" xlink:href="#DejaVuSans-50"/><use x="159.033" xlink:href="#DejaVuSans-48"/></g></g><g id="ytick_6"><path id="line2d_16" fill="none" stroke="#b0b0b0" stroke-linecap="square" stroke-width=".8" d="M54.013 69.623H421.2" clip-path="url(#p02daeaf4cd)"/><use id="line2d_17" x="54.013" y="69.623" stroke="#000" stroke-width=".8" xlink:href="#meffcea9939"/><g id="text_12" transform="matrix(.1 0 0 -.1 24.747 73.422)"><use xlink:href="#DejaVuSans-49"/><use x="63.623" xlink:href="#DejaVuSans-46"/><use x="95.41" xlink:href="#DejaVuSans-50"/><use x="159.033" xlink:href="#DejaVuSans-53"/></g></g><g id="ytick_7"><path id="line2d_18" fill="none" stroke="#b0b0b0" stroke-linecap="square" stroke-width=".8" d="M54.013 37.281H421.2" clip-path="url(#p02daeaf4cd)"/><use id="line2d_19" x="54.013" y="37.281" stroke="#000" stroke-width=".8" xlink:href="#meffcea9939"/><g id="text_13"><defs><path id="DejaVuSans-51" d="M40.578 39.313Q47.656 37.797 51.625 33q3.984-4.781 3.984-11.813 0-10.78-7.422-16.703-7.421-5.906-21.093-5.906-4.578 0-9.438.906-4.86.907-10.031 2.72v9.515q4.094-2.39 8.969-3.61 4.89-1.218 10.218-1.218 9.266 0 14.125 3.656 4.86 3.656 4.86 10.64 0 6.454-4.516 10.079-4.515 3.64-12.562 3.64h-8.5v8.11h8.89q7.266 0 11.125 2.906 3.86 2.906 3.86 8.375 0 5.61-3.985 8.61-3.968 3.015-11.39 3.015-4.063 0-8.703-.89-4.641-.876-10.203-2.72v8.782q5.624 1.562 10.53 2.344 4.907.78 9.25.78 11.235 0 17.766-5.109 6.547-5.093 6.547-13.78 0-6.063-3.468-10.235-3.47-4.172-9.86-5.782z"/></defs><g transform="matrix(.1 0 0 -.1 24.747 41.08)"><use xlink:href="#DejaVuSans-49"/><use x="63.623" xlink:href="#DejaVuSans-46"/><use x="95.41" xlink:href="#DejaVuSans-51"/><use x="159.033" xlink:href="#DejaVuSans-48"/></g></g></g><g id="text_14"><defs><path id="DejaVuSans-83" d="M53.516 70.516V60.89q-5.61 2.687-10.594 4-4.984 1.328-9.625 1.328-8.047 0-12.422-3.125t-4.375-8.89q0-4.845 2.906-7.313 2.907-2.453 11.016-3.97l5.953-1.218q11.031-2.11 16.281-7.406 5.25-5.297 5.25-14.172 0-10.61-7.11-16.078-7.093-5.469-20.812-5.469-5.172 0-11.015 1.172Q13.14.922 6.89 3.219v10.156q6-3.36 11.765-5.078 5.766-1.703 11.328-1.703 8.438 0 13.032 3.312 4.593 3.328 4.593 9.485 0 5.359-3.297 8.39-3.296 3.032-10.812 4.547L27.484 33.5q-11.03 2.188-15.968 6.875-4.922 4.688-4.922 13.047 0 9.672 6.812 15.234 6.813 5.563 18.766 5.563 5.14 0 10.453-.938 5.328-.922 10.89-2.765z"/><path id="DejaVuSans-112" d="M18.11 8.203v-29H9.077v75.484h9.031v-8.296q2.844 4.875 7.157 7.234Q29.594 56 35.594 56q9.968 0 16.187-7.906 6.235-7.907 6.235-20.797T51.78 6.484q-6.218-7.906-16.187-7.906-6 0-10.328 2.375-4.313 2.375-7.157 7.25zm30.578 19.094q0 9.906-4.079 15.547-4.078 5.64-11.203 5.64-7.14 0-11.218-5.64-4.079-5.64-4.079-15.547 0-9.906 4.078-15.547 4.079-5.64 11.22-5.64 7.124 0 11.202 5.64t4.078 15.547z"/><path id="DejaVuSans-100" d="M45.406 46.39v29.594h8.985V0h-8.985v8.203Q42.578 3.328 38.25.953q-4.313-2.375-10.375-2.375-9.906 0-16.14 7.906-6.22 7.922-6.22 20.813 0 12.89 6.22 20.797Q17.968 56 27.874 56q6.063 0 10.375-2.375 4.328-2.36 7.156-7.234zm-30.61-19.093q0-9.906 4.079-15.547 4.078-5.64 11.203-5.64 7.125 0 11.219 5.64 4.11 5.64 4.11 15.547 0 9.906-4.11 15.547-4.094 5.64-11.219 5.64-7.125 0-11.203-5.64-4.078-5.64-4.078-15.547z"/><path id="DejaVuSans-45" d="M4.89 31.39h26.313v-8H4.891z"/><path id="DejaVuSans-117" d="M8.5 21.578v33.11h8.984V21.922q0-7.766 3.016-11.656 3.031-3.875 9.094-3.875 7.265 0 11.484 4.64 4.234 4.64 4.234 12.656v31h8.985V0h-8.984v8.406Q42.047 3.422 37.718 1q-4.313-2.422-10.032-2.422-9.421 0-14.312 5.86Q8.5 10.296 8.5 21.578zM31.11 56z"/></defs><g transform="matrix(0 -.1 -.1 0 18.667 152.423)"><use xlink:href="#DejaVuSans-83"/><use x="63.477" xlink:href="#DejaVuSans-112"/><use x="126.953" xlink:href="#DejaVuSans-101"/><use x="188.477" xlink:href="#DejaVuSans-101"/><use x="250" xlink:href="#DejaVuSans-100"/><use x="313.477" xlink:href="#DejaVuSans-45"/><use x="349.561" xlink:href="#DejaVuSans-117"/><use x="412.939" xlink:href="#DejaVuSans-112"/></g></g></g><g id="line2d_20"><path fill="none" stroke="#b2b2b2" stroke-linecap="square" d="M70.703 228.364l15.173-73.836 15.173-46.555 15.173-3.663 15.173 5.676 15.173-2.293 15.173-.944 15.173-1.227 15.173-3.264 15.173-37.194 15.173-21.167 15.173 4.415 15.173-17.255 15.173-1.146 15.173 3.258 15.173.662 15.173-1.739 15.173-1.637 15.174 1.785 15.173-1.22 15.173-6.631 15.173-2.88 15.173.071" clip-path="url(#p02daeaf4cd)"/><defs><path id="m155df6e99b" stroke="#b2b2b2" d="M5 0H-5"/></defs><g fill="#b2b2b2" stroke="#b2b2b2" clip-path="url(#p02daeaf4cd)"><use x="70.703" y="228.364" xlink:href="#m155df6e99b"/><use x="85.876" y="154.528" xlink:href="#m155df6e99b"/><use x="101.049" y="107.973" xlink:href="#m155df6e99b"/><use x="116.222" y="104.31" xlink:href="#m155df6e99b"/><use x="131.395" y="109.986" xlink:href="#m155df6e99b"/><use x="146.568" y="107.693" xlink:href="#m155df6e99b"/><use x="161.741" y="106.749" xlink:href="#m155df6e99b"/><use x="176.914" y="105.522" xlink:href="#m155df6e99b"/><use x="192.087" y="102.258" xlink:href="#m155df6e99b"/><use x="207.26" y="65.064" xlink:href="#m155df6e99b"/><use x="222.433" y="43.897" xlink:href="#m155df6e99b"/><use x="237.606" y="48.312" xlink:href="#m155df6e99b"/><use x="252.779" y="31.057" xlink:href="#m155df6e99b"/><use x="267.952" y="29.911" xlink:href="#m155df6e99b"/><use x="283.125" y="33.169" xlink:href="#m155df6e99b"/><use x="298.298" y="33.831" xlink:href="#m155df6e99b"/><use x="313.471" y="32.092" xlink:href="#m155df6e99b"/><use x="328.644" y="30.455" xlink:href="#m155df6e99b"/><use x="343.818" y="32.24" xlink:href="#m155df6e99b"/><use x="358.991" y="31.02" xlink:href="#m155df6e99b"/><use x="374.164" y="24.389" xlink:href="#m155df6e99b"/><use x="389.337" y="21.509" xlink:href="#m155df6e99b"/><use x="404.51" y="21.58" xlink:href="#m155df6e99b"/></g></g><g id="line2d_21"><path fill="none" stroke="#000" stroke-linecap="square" d="M70.703 231.324l15.173-75.634 15.173-46.438 15.173-2.864 15.173 5.177 15.173-2.405 15.173-.451 15.173-.865 15.173-3.398 15.173-38.465 15.173-21.01 15.173 4.5 15.173-16.954 15.173-1.192 15.173 2.523 15.173 2.89 15.173-3.182 15.173-1.565 15.174 1.297L358.99 31.9l15.173-6.036 15.173-3.24 15.173-.054" clip-path="url(#p02daeaf4cd)"/><defs><path id="m6f64dfaab4" stroke="#000" d="M5 0H-5"/></defs><g stroke="#000" clip-path="url(#p02daeaf4cd)"><use x="70.703" y="231.324" xlink:href="#m6f64dfaab4"/><use x="85.876" y="155.69" xlink:href="#m6f64dfaab4"/><use x="101.049" y="109.252" xlink:href="#m6f64dfaab4"/><use x="116.222" y="106.388" xlink:href="#m6f64dfaab4"/><use x="131.395" y="111.565" xlink:href="#m6f64dfaab4"/><use x="146.568" y="109.16" xlink:href="#m6f64dfaab4"/><use x="161.741" y="108.709" xlink:href="#m6f64dfaab4"/><use x="176.914" y="107.844" xlink:href="#m6f64dfaab4"/><use x="192.087" y="104.446" xlink:href="#m6f64dfaab4"/><use x="207.26" y="65.981" xlink:href="#m6f64dfaab4"/><use x="222.433" y="44.97" xlink:href="#m6f64dfaab4"/><use x="237.606" y="49.47" xlink:href="#m6f64dfaab4"/><use x="252.779" y="32.517" xlink:href="#m6f64dfaab4"/><use x="267.952" y="31.325" xlink:href="#m6f64dfaab4"/><use x="283.125" y="33.848" xlink:href="#m6f64dfaab4"/><use x="298.298" y="36.738" xlink:href="#m6f64dfaab4"/><use x="313.471" y="33.556" xlink:href="#m6f64dfaab4"/><use x="328.644" y="31.991" xlink:href="#m6f64dfaab4"/><use x="343.818" y="33.288" xlink:href="#m6f64dfaab4"/><use x="358.991" y="31.899" xlink:href="#m6f64dfaab4"/><use x="374.164" y="25.863" xlink:href="#m6f64dfaab4"/><use x="389.337" y="22.624" xlink:href="#m6f64dfaab4"/><use x="404.51" y="22.569" xlink:href="#m6f64dfaab4"/></g></g><g id="line2d_22" stroke="#b2b2b2"><path fill="none" stroke-linecap="square" d="M70.703 235.69l15.173-78.825 15.173-46.806 15.173-1.675 15.173 4.49 15.173-1.633 15.173.394 15.173-1.1 15.173-2.433L207.26 67.16l15.173-20.888 15.173 4.246 15.173-16.055 15.173-1.097 15.173 1.308 15.173 4.782 15.173-4.87 15.173-.851 15.174 1.574 15.173-2.78 15.173-5.276 15.173-2.804 15.173-1.008" clip-path="url(#p02daeaf4cd)"/><g fill="#b2b2b2" clip-path="url(#p02daeaf4cd)"><use x="70.703" y="235.691" xlink:href="#m155df6e99b"/><use x="85.876" y="156.865" xlink:href="#m155df6e99b"/><use x="101.049" y="110.059" xlink:href="#m155df6e99b"/><use x="116.222" y="108.384" xlink:href="#m155df6e99b"/><use x="131.395" y="112.874" xlink:href="#m155df6e99b"/><use x="146.568" y="111.241" xlink:href="#m155df6e99b"/><use x="161.741" y="111.635" xlink:href="#m155df6e99b"/><use x="176.914" y="110.536" xlink:href="#m155df6e99b"/><use x="192.087" y="108.102" xlink:href="#m155df6e99b"/><use x="207.26" y="67.159" xlink:href="#m155df6e99b"/><use x="222.433" y="46.271" xlink:href="#m155df6e99b"/><use x="237.606" y="50.517" xlink:href="#m155df6e99b"/><use x="252.779" y="34.462" xlink:href="#m155df6e99b"/><use x="267.952" y="33.365" xlink:href="#m155df6e99b"/><use x="283.125" y="34.673" xlink:href="#m155df6e99b"/><use x="298.298" y="39.455" xlink:href="#m155df6e99b"/><use x="313.471" y="34.584" xlink:href="#m155df6e99b"/><use x="328.644" y="33.734" xlink:href="#m155df6e99b"/><use x="343.818" y="35.308" xlink:href="#m155df6e99b"/><use x="358.991" y="32.529" xlink:href="#m155df6e99b"/><use x="374.164" y="27.252" xlink:href="#m155df6e99b"/><use x="389.337" y="24.448" xlink:href="#m155df6e99b"/><use x="404.51" y="23.44" xlink:href="#m155df6e99b"/></g></g><path id="patch_3" fill="none" stroke="#000" stroke-linecap="square" stroke-width=".8" d="M54.013 246.4V10.8"/><path id="patch_4" fill="none" stroke="#000" stroke-linecap="square" stroke-width=".8" d="M421.2 246.4V10.8"/><path id="patch_5" fill="none" stroke="#000" stroke-linecap="square" stroke-width=".8" d="M54.013 246.4H421.2"/><path id="patch_6" fill="none" stroke="#000" stroke-linecap="square" stroke-width=".8" d="M54.013 10.8H421.2"/><g id="legend_1"><path id="patch_7" fill="#fff" stroke="#ccc" d="M61.013 62.834h82.384q2 0 2-2V17.8q0-2-2-2H61.013q-2 0-2 2v43.034q0 2 2 2z" opacity=".8"/><path id="line2d_23" fill="none" stroke="#b2b2b2" stroke-linecap="square" d="M63.013 23.898h20"/><use id="line2d_24" x="73.013" y="23.898" fill="#b2b2b2" stroke="#b2b2b2" xlink:href="#m155df6e99b"/><g id="text_15"><defs><path id="DejaVuSans-109" d="M52 44.188q3.375 6.062 8.063 8.937Q64.75 56 71.093 56q8.548 0 13.188-5.984 4.64-5.97 4.64-17V0h-9.03v32.719q0 7.86-2.797 11.656-2.781 3.813-8.485 3.813-6.984 0-11.046-4.641-4.047-4.625-4.047-12.64V0h-9.032v32.719q0 7.906-2.78 11.687-2.782 3.782-8.595 3.782-6.89 0-10.953-4.657-4.047-4.656-4.047-12.625V0H9.08v54.688h9.03v-8.5q3.078 5.03 7.375 7.421Q29.781 56 35.687 56q5.97 0 10.141-3.031Q50 49.953 52 44.187z"/><path id="DejaVuSans-120" d="M54.89 54.688l-19.78-26.61L55.905 0H45.313L29.39 21.484 13.484 0H2.875l21.25 28.61L4.687 54.687h10.594l14.5-19.485 14.5 19.484z"/><path id="DejaVuSans-105" d="M9.422 54.688h8.984V0H9.422zm0 21.296h8.984v-11.39H9.422z"/></defs><g transform="matrix(.1 0 0 -.1 91.013 27.398)"><use xlink:href="#DejaVuSans-109"/><use x="97.412" xlink:href="#DejaVuSans-97"/><use x="158.691" xlink:href="#DejaVuSans-120"/><use x="217.871" xlink:href="#DejaVuSans-105"/><use x="245.654" xlink:href="#DejaVuSans-109"/><use x="343.066" xlink:href="#DejaVuSans-117"/><use x="406.445" xlink:href="#DejaVuSans-109"/></g></g><path id="line2d_25" fill="none" stroke="#000" stroke-linecap="square" d="M63.013 38.577h20"/><use id="line2d_26" x="73.013" y="38.577" stroke="#000" xlink:href="#m6f64dfaab4"/><g id="text_16"><defs><path id="DejaVuSans-110" d="M54.89 33.016V0h-8.984v32.719q0 7.765-3.031 11.61-3.031 3.858-9.078 3.858-7.281 0-11.484-4.64-4.204-4.625-4.204-12.64V0H9.08v54.688h9.03v-8.5q3.235 4.937 7.594 7.374Q30.078 56 35.797 56q9.422 0 14.25-5.828 4.844-5.828 4.844-17.156z"/></defs><g transform="matrix(.1 0 0 -.1 91.013 42.077)"><use xlink:href="#DejaVuSans-109"/><use x="97.412" xlink:href="#DejaVuSans-101"/><use x="158.936" xlink:href="#DejaVuSans-97"/><use x="220.215" xlink:href="#DejaVuSans-110"/></g></g><path id="line2d_27" fill="none" stroke="#b2b2b2" stroke-linecap="square" d="M63.013 53.255h20"/><use id="line2d_28" x="73.013" y="53.255" fill="#b2b2b2" stroke="#b2b2b2" xlink:href="#m155df6e99b"/><g id="text_17" transform="matrix(.1 0 0 -.1 91.013 56.755)"><use xlink:href="#DejaVuSans-109"/><use x="97.412" xlink:href="#DejaVuSans-105"/><use x="125.195" xlink:href="#DejaVuSans-110"/><use x="188.574" xlink:href="#DejaVuSans-105"/><use x="216.357" xlink:href="#DejaVuSans-109"/><use x="313.77" xlink:href="#DejaVuSans-117"/><use x="377.148" xlink:href="#DejaVuSans-109"/></g></g></g></g><defs><clipPath id="p02daeaf4cd"><path d="M54.013 10.8h367.188v235.6H54.013z"/></clipPath></defs></svg>