<?xml version="1.0" encoding="utf-8" standalone="no"?>
<!DOCTYPE svg PUBLIC "-//W3C//DTD SVG 1.1//EN"
  "http://www.w3.org/Graphics/SVG/1.1/DTD/svg11.dtd">
<!-- Created with matplotlib (https://matplotlib.org/) -->
<svg style="background:white" height="262.19625pt" version="1.1" viewBox="0 0 405.909176 262.19625" width="405.909176pt" xmlns="http://www.w3.org/2000/svg" xmlns:xlink="http://www.w3.org/1999/xlink">
 <defs>
  <style type="text/css">
*{stroke-linecap:butt;stroke-linejoin:round;}
  </style>
 </defs>
 <g id="figure_1">
  <g id="patch_1">
   <path d="M 0 262.19625 
L 405.909176 262.19625 
L 405.909176 0 
L 0 0 
z
" style="fill:none;"/>
  </g>
  <g id="axes_1">
   <g id="patch_2">
    <path d="M 56.50625 224.64 
L 391.30625 224.64 
L 391.30625 7.2 
L 56.50625 7.2 
z
" style="fill:#ffffff;"/>
   </g>
   <g id="PolyCollection_1">
    <defs>
     <path d="M 52.869098 -37.87601 
L 52.869098 -37.55625 
L 54.488802 -37.55625 
L 56.108506 -37.55625 
L 57.72821 -37.55625 
L 59.347914 -37.55625 
L 60.967618 -37.55625 
L 62.587322 -37.55625 
L 64.207026 -37.55625 
L 65.82673 -37.55625 
L 67.446434 -37.55625 
L 69.066138 -37.55625 
L 70.685842 -37.55625 
L 72.305546 -37.55625 
L 73.92525 -37.55625 
L 75.544954 -37.55625 
L 77.164658 -37.55625 
L 78.784362 -37.55625 
L 80.404066 -37.55625 
L 82.02377 -37.55625 
L 83.643474 -37.55625 
L 85.263178 -37.55625 
L 86.882882 -37.55625 
L 88.502586 -37.55625 
L 90.12229 -37.55625 
L 91.741994 -37.55625 
L 93.361698 -37.55625 
L 94.981402 -37.55625 
L 96.601106 -37.55625 
L 98.22081 -37.55625 
L 99.840514 -37.55625 
L 101.460218 -37.55625 
L 103.079922 -37.55625 
L 104.699626 -37.55625 
L 106.31933 -37.55625 
L 107.939034 -37.55625 
L 109.558738 -37.55625 
L 111.178442 -37.55625 
L 112.798146 -37.55625 
L 114.41785 -37.55625 
L 116.037554 -37.55625 
L 117.657258 -37.55625 
L 119.276962 -37.55625 
L 120.896666 -37.55625 
L 122.51637 -37.55625 
L 124.136074 -37.55625 
L 125.755778 -37.55625 
L 127.375482 -37.55625 
L 128.995186 -37.55625 
L 130.61489 -37.55625 
L 132.234594 -37.55625 
L 133.854298 -37.55625 
L 135.474002 -37.55625 
L 137.093706 -37.55625 
L 138.71341 -37.55625 
L 140.333114 -37.55625 
L 141.952818 -37.55625 
L 143.572522 -37.55625 
L 145.192226 -37.55625 
L 146.81193 -37.55625 
L 148.431634 -37.55625 
L 150.051338 -37.55625 
L 151.671042 -37.55625 
L 153.290746 -37.55625 
L 154.91045 -37.55625 
L 156.530154 -37.55625 
L 158.149858 -37.55625 
L 159.769562 -37.55625 
L 161.389266 -37.55625 
L 163.00897 -37.55625 
L 164.628674 -37.55625 
L 166.248378 -37.55625 
L 167.868082 -37.55625 
L 169.487786 -37.55625 
L 171.10749 -37.55625 
L 172.727194 -37.55625 
L 174.346898 -37.55625 
L 175.966602 -37.55625 
L 177.586306 -37.55625 
L 179.20601 -37.55625 
L 180.825714 -37.55625 
L 182.445418 -37.55625 
L 184.065122 -37.55625 
L 185.684826 -37.55625 
L 187.30453 -37.55625 
L 188.924234 -37.55625 
L 190.543938 -37.55625 
L 192.163642 -37.55625 
L 193.783346 -37.55625 
L 195.40305 -37.55625 
L 197.022754 -37.55625 
L 198.642458 -37.55625 
L 200.262162 -37.55625 
L 201.881866 -37.55625 
L 203.50157 -37.55625 
L 205.121274 -37.55625 
L 206.740978 -37.55625 
L 208.360682 -37.55625 
L 209.980386 -37.55625 
L 211.60009 -37.55625 
L 213.219794 -37.55625 
L 214.839498 -37.55625 
L 216.459202 -37.55625 
L 218.078906 -37.55625 
L 219.69861 -37.55625 
L 221.318314 -37.55625 
L 222.938018 -37.55625 
L 224.557722 -37.55625 
L 226.177426 -37.55625 
L 227.79713 -37.55625 
L 229.416834 -37.55625 
L 231.036538 -37.55625 
L 232.656242 -37.55625 
L 234.275946 -37.55625 
L 235.89565 -37.55625 
L 237.515354 -37.55625 
L 239.135058 -37.55625 
L 240.754762 -37.55625 
L 242.374466 -37.55625 
L 243.994171 -37.55625 
L 245.613875 -37.55625 
L 247.233579 -37.55625 
L 248.853283 -37.55625 
L 250.472987 -37.55625 
L 252.092691 -37.55625 
L 253.712395 -37.55625 
L 255.332099 -37.55625 
L 256.951803 -37.55625 
L 258.571507 -37.55625 
L 260.191211 -37.55625 
L 261.810915 -37.55625 
L 263.430619 -37.55625 
L 265.050323 -37.55625 
L 266.670027 -37.55625 
L 268.289731 -37.55625 
L 269.909435 -37.55625 
L 271.529139 -37.55625 
L 273.148843 -37.55625 
L 274.768547 -37.55625 
L 276.388251 -37.55625 
L 278.007955 -37.55625 
L 279.627659 -37.55625 
L 281.247363 -37.55625 
L 282.867067 -37.55625 
L 284.486771 -37.55625 
L 286.106475 -37.55625 
L 287.726179 -37.55625 
L 289.345883 -37.55625 
L 290.965587 -37.55625 
L 292.585291 -37.55625 
L 294.204995 -37.55625 
L 295.824699 -37.55625 
L 297.444403 -37.55625 
L 299.064107 -37.55625 
L 300.683811 -37.55625 
L 302.303515 -37.55625 
L 303.923219 -37.55625 
L 305.542923 -37.55625 
L 307.162627 -37.55625 
L 308.782331 -37.55625 
L 310.402035 -37.55625 
L 312.021739 -37.55625 
L 313.641443 -37.55625 
L 315.261147 -37.55625 
L 316.880851 -37.55625 
L 318.500555 -37.55625 
L 320.120259 -37.55625 
L 321.739963 -37.55625 
L 323.359667 -37.55625 
L 324.979371 -37.55625 
L 326.599075 -37.55625 
L 328.218779 -37.55625 
L 329.838483 -37.55625 
L 331.458187 -37.55625 
L 333.077891 -37.55625 
L 334.697595 -37.55625 
L 336.317299 -37.55625 
L 337.937003 -37.55625 
L 339.556707 -37.55625 
L 341.176411 -37.55625 
L 342.796115 -37.55625 
L 344.415819 -37.55625 
L 346.035523 -37.55625 
L 347.655227 -37.55625 
L 349.274931 -37.55625 
L 350.894635 -37.55625 
L 352.514339 -37.55625 
L 354.134043 -37.55625 
L 355.753747 -37.55625 
L 357.373451 -37.55625 
L 358.993155 -37.55625 
L 360.612859 -37.55625 
L 362.232563 -37.55625 
L 363.852267 -37.55625 
L 365.471971 -37.55625 
L 367.091675 -37.55625 
L 368.711379 -37.55625 
L 370.331083 -37.55625 
L 371.950787 -37.55625 
L 373.570491 -37.55625 
L 375.190195 -37.55625 
L 375.190195 -37.556274 
L 375.190195 -37.556274 
L 373.570491 -37.556788 
L 371.950787 -37.558285 
L 370.331083 -37.557542 
L 368.711379 -37.556391 
L 367.091675 -37.556425 
L 365.471971 -37.557682 
L 363.852267 -37.558556 
L 362.232563 -37.558525 
L 360.612859 -37.557891 
L 358.993155 -37.556943 
L 357.373451 -37.558218 
L 355.753747 -37.557668 
L 354.134043 -37.556423 
L 352.514339 -37.556347 
L 350.894635 -37.557335 
L 349.274931 -37.558367 
L 347.655227 -37.556943 
L 346.035523 -37.556288 
L 344.415819 -37.55625 
L 342.796115 -37.556261 
L 341.176411 -37.556601 
L 339.556707 -37.558078 
L 337.937003 -37.557848 
L 336.317299 -37.55649 
L 334.697595 -37.556491 
L 333.077891 -37.55785 
L 331.458187 -37.558078 
L 329.838483 -37.556662 
L 328.218779 -37.557154 
L 326.599075 -37.558397 
L 324.979371 -37.557117 
L 323.359667 -37.556309 
L 321.739963 -37.556251 
L 320.120259 -37.55625 
L 318.500555 -37.55625 
L 316.880851 -37.55625 
L 315.261147 -37.556251 
L 313.641443 -37.55631 
L 312.021739 -37.55713 
L 310.402035 -37.558397 
L 308.782331 -37.55713 
L 307.162627 -37.55631 
L 305.542923 -37.556251 
L 303.923219 -37.55625 
L 302.303515 -37.55625 
L 300.683811 -37.556254 
L 299.064107 -37.556431 
L 297.444403 -37.557696 
L 295.824699 -37.558193 
L 294.204995 -37.556688 
L 292.585291 -37.556267 
L 290.965587 -37.55625 
L 289.345883 -37.55625 
L 287.726179 -37.55625 
L 286.106475 -37.55625 
L 284.486771 -37.55625 
L 282.867067 -37.55625 
L 281.247363 -37.55625 
L 279.627659 -37.55625 
L 278.007955 -37.55625 
L 276.388251 -37.55625 
L 274.768547 -37.55625 
L 273.148843 -37.55625 
L 271.529139 -37.55625 
L 269.909435 -37.55625 
L 268.289731 -37.55625 
L 266.670027 -37.55625 
L 265.050323 -37.55625 
L 263.430619 -37.55625 
L 261.810915 -37.55625 
L 260.191211 -37.55625 
L 258.571507 -37.556251 
L 256.951803 -37.556305 
L 255.332099 -37.557085 
L 253.712395 -37.558396 
L 252.092691 -37.557175 
L 250.472987 -37.556327 
L 248.853283 -37.556576 
L 247.233579 -37.558346 
L 245.613875 -37.560775 
L 243.994171 -37.563494 
L 242.374466 -37.561924 
L 240.754762 -37.560806 
L 239.135058 -37.562161 
L 237.515354 -37.561498 
L 235.89565 -37.564761 
L 234.275946 -37.570607 
L 232.656242 -37.567994 
L 231.036538 -37.566882 
L 229.416834 -37.571421 
L 227.79713 -37.577484 
L 226.177426 -37.572953 
L 224.557722 -37.567083 
L 222.938018 -37.565941 
L 221.318314 -37.562473 
L 219.69861 -37.562528 
L 218.078906 -37.572085 
L 216.459202 -37.581302 
L 214.839498 -37.58654 
L 213.219794 -37.592937 
L 211.60009 -37.592961 
L 209.980386 -37.585345 
L 208.360682 -37.57752 
L 206.740978 -37.568495 
L 205.121274 -37.572255 
L 203.50157 -37.592469 
L 201.881866 -37.601333 
L 200.262162 -37.611995 
L 198.642458 -37.644702 
L 197.022754 -37.619125 
L 195.40305 -37.586668 
L 193.783346 -37.593219 
L 192.163642 -37.607182 
L 190.543938 -37.601942 
L 188.924234 -37.58774 
L 187.30453 -37.580413 
L 185.684826 -37.592966 
L 184.065122 -37.620259 
L 182.445418 -37.608208 
L 180.825714 -37.593498 
L 179.20601 -37.590914 
L 177.586306 -37.587851 
L 175.966602 -37.583516 
L 174.346898 -37.593194 
L 172.727194 -37.601663 
L 171.10749 -37.61517 
L 169.487786 -37.631038 
L 167.868082 -37.620461 
L 166.248378 -37.621775 
L 164.628674 -37.632288 
L 163.00897 -37.65857 
L 161.389266 -37.671941 
L 159.769562 -37.65998 
L 158.149858 -37.690495 
L 156.530154 -37.692638 
L 154.91045 -37.649895 
L 153.290746 -37.623976 
L 151.671042 -37.620061 
L 150.051338 -37.669295 
L 148.431634 -37.72688 
L 146.81193 -37.697826 
L 145.192226 -37.64645 
L 143.572522 -37.674622 
L 141.952818 -37.745519 
L 140.333114 -37.771695 
L 138.71341 -37.743834 
L 137.093706 -37.71705 
L 135.474002 -37.718767 
L 133.854298 -37.754505 
L 132.234594 -37.79405 
L 130.61489 -37.871358 
L 128.995186 -37.935451 
L 127.375482 -37.968023 
L 125.755778 -37.998939 
L 124.136074 -37.99973 
L 122.51637 -37.971089 
L 120.896666 -37.978632 
L 119.276962 -38.023003 
L 117.657258 -38.056323 
L 116.037554 -37.998219 
L 114.41785 -37.989946 
L 112.798146 -38.115163 
L 111.178442 -38.231592 
L 109.558738 -38.265505 
L 107.939034 -38.220856 
L 106.31933 -38.170826 
L 104.699626 -38.136763 
L 103.079922 -38.223783 
L 101.460218 -38.326338 
L 99.840514 -38.363957 
L 98.22081 -38.391529 
L 96.601106 -38.451841 
L 94.981402 -38.197978 
L 93.361698 -38.114253 
L 91.741994 -38.099701 
L 90.12229 -38.067833 
L 88.502586 -38.191048 
L 86.882882 -38.085321 
L 85.263178 -38.046941 
L 83.643474 -38.073701 
L 82.02377 -38.251469 
L 80.404066 -38.606635 
L 78.784362 -39.012238 
L 77.164658 -39.564993 
L 75.544954 -40.075427 
L 73.92525 -40.678178 
L 72.305546 -41.485897 
L 70.685842 -42.515898 
L 69.066138 -43.786582 
L 67.446434 -44.690625 
L 65.82673 -44.657807 
L 64.207026 -46.675318 
L 62.587322 -55.861411 
L 60.967618 -78.319607 
L 59.347914 -134.263493 
L 57.72821 -244.641964 
L 56.108506 -164.870446 
L 54.488802 -52.575917 
L 52.869098 -37.87601 
z
" id="m9b50b26f18" style="stroke:#1f77b4;"/>
    </defs>
    <g clip-path="url(#pd7883ffb3d)">
     <use style="fill:#1f77b4;fill-opacity:0.25;stroke:#1f77b4;" x="0" xlink:href="#m9b50b26f18" y="262.19625"/>
    </g>
   </g>
   <g id="matplotlib.axis_1">
    <g id="xtick_1">
     <g id="line2d_1">
      <defs>
       <path d="M 0 0 
L 0 3.5 
" id="m72ae664b82" style="stroke:#000000;stroke-width:0.8;"/>
      </defs>
      <g>
       <use style="stroke:#000000;stroke-width:0.8;" x="56.50625" xlink:href="#m72ae664b82" y="224.64"/>
      </g>
     </g>
     <g id="text_1">
      <!-- 0 -->
      <defs>
       <path d="M 31.78125 66.40625 
Q 24.171875 66.40625 20.328125 58.90625 
Q 16.5 51.421875 16.5 36.375 
Q 16.5 21.390625 20.328125 13.890625 
Q 24.171875 6.390625 31.78125 6.390625 
Q 39.453125 6.390625 43.28125 13.890625 
Q 47.125 21.390625 47.125 36.375 
Q 47.125 51.421875 43.28125 58.90625 
Q 39.453125 66.40625 31.78125 66.40625 
z
M 31.78125 74.21875 
Q 44.046875 74.21875 50.515625 64.515625 
Q 56.984375 54.828125 56.984375 36.375 
Q 56.984375 17.96875 50.515625 8.265625 
Q 44.046875 -1.421875 31.78125 -1.421875 
Q 19.53125 -1.421875 13.0625 8.265625 
Q 6.59375 17.96875 6.59375 36.375 
Q 6.59375 54.828125 13.0625 64.515625 
Q 19.53125 74.21875 31.78125 74.21875 
z
" id="DejaVuSans-48"/>
      </defs>
      <g transform="translate(53.325 239.238437)scale(0.1 -0.1)">
       <use xlink:href="#DejaVuSans-48"/>
      </g>
     </g>
    </g>
    <g id="xtick_2">
     <g id="line2d_2">
      <g>
       <use style="stroke:#000000;stroke-width:0.8;" x="122.401835" xlink:href="#m72ae664b82" y="224.64"/>
      </g>
     </g>
     <g id="text_2">
      <!-- 1000 -->
      <defs>
       <path d="M 12.40625 8.296875 
L 28.515625 8.296875 
L 28.515625 63.921875 
L 10.984375 60.40625 
L 10.984375 69.390625 
L 28.421875 72.90625 
L 38.28125 72.90625 
L 38.28125 8.296875 
L 54.390625 8.296875 
L 54.390625 0 
L 12.40625 0 
z
" id="DejaVuSans-49"/>
      </defs>
      <g transform="translate(109.676835 239.238437)scale(0.1 -0.1)">
       <use xlink:href="#DejaVuSans-49"/>
       <use x="63.623047" xlink:href="#DejaVuSans-48"/>
       <use x="127.246094" xlink:href="#DejaVuSans-48"/>
       <use x="190.869141" xlink:href="#DejaVuSans-48"/>
      </g>
     </g>
    </g>
    <g id="xtick_3">
     <g id="line2d_3">
      <g>
       <use style="stroke:#000000;stroke-width:0.8;" x="188.29742" xlink:href="#m72ae664b82" y="224.64"/>
      </g>
     </g>
     <g id="text_3">
      <!-- 2000 -->
      <defs>
       <path d="M 19.1875 8.296875 
L 53.609375 8.296875 
L 53.609375 0 
L 7.328125 0 
L 7.328125 8.296875 
Q 12.9375 14.109375 22.625 23.890625 
Q 32.328125 33.6875 34.8125 36.53125 
Q 39.546875 41.84375 41.421875 45.53125 
Q 43.3125 49.21875 43.3125 52.78125 
Q 43.3125 58.59375 39.234375 62.25 
Q 35.15625 65.921875 28.609375 65.921875 
Q 23.96875 65.921875 18.8125 64.3125 
Q 13.671875 62.703125 7.8125 59.421875 
L 7.8125 69.390625 
Q 13.765625 71.78125 18.9375 73 
Q 24.125 74.21875 28.421875 74.21875 
Q 39.75 74.21875 46.484375 68.546875 
Q 53.21875 62.890625 53.21875 53.421875 
Q 53.21875 48.921875 51.53125 44.890625 
Q 49.859375 40.875 45.40625 35.40625 
Q 44.1875 33.984375 37.640625 27.21875 
Q 31.109375 20.453125 19.1875 8.296875 
z
" id="DejaVuSans-50"/>
      </defs>
      <g transform="translate(175.57242 239.238437)scale(0.1 -0.1)">
       <use xlink:href="#DejaVuSans-50"/>
       <use x="63.623047" xlink:href="#DejaVuSans-48"/>
       <use x="127.246094" xlink:href="#DejaVuSans-48"/>
       <use x="190.869141" xlink:href="#DejaVuSans-48"/>
      </g>
     </g>
    </g>
    <g id="xtick_4">
     <g id="line2d_4">
      <g>
       <use style="stroke:#000000;stroke-width:0.8;" x="254.193006" xlink:href="#m72ae664b82" y="224.64"/>
      </g>
     </g>
     <g id="text_4">
      <!-- 3000 -->
      <defs>
       <path d="M 40.578125 39.3125 
Q 47.65625 37.796875 51.625 33 
Q 55.609375 28.21875 55.609375 21.1875 
Q 55.609375 10.40625 48.1875 4.484375 
Q 40.765625 -1.421875 27.09375 -1.421875 
Q 22.515625 -1.421875 17.65625 -0.515625 
Q 12.796875 0.390625 7.625 2.203125 
L 7.625 11.71875 
Q 11.71875 9.328125 16.59375 8.109375 
Q 21.484375 6.890625 26.8125 6.890625 
Q 36.078125 6.890625 40.9375 10.546875 
Q 45.796875 14.203125 45.796875 21.1875 
Q 45.796875 27.640625 41.28125 31.265625 
Q 36.765625 34.90625 28.71875 34.90625 
L 20.21875 34.90625 
L 20.21875 43.015625 
L 29.109375 43.015625 
Q 36.375 43.015625 40.234375 45.921875 
Q 44.09375 48.828125 44.09375 54.296875 
Q 44.09375 59.90625 40.109375 62.90625 
Q 36.140625 65.921875 28.71875 65.921875 
Q 24.65625 65.921875 20.015625 65.03125 
Q 15.375 64.15625 9.8125 62.3125 
L 9.8125 71.09375 
Q 15.4375 72.65625 20.34375 73.4375 
Q 25.25 74.21875 29.59375 74.21875 
Q 40.828125 74.21875 47.359375 69.109375 
Q 53.90625 64.015625 53.90625 55.328125 
Q 53.90625 49.265625 50.4375 45.09375 
Q 46.96875 40.921875 40.578125 39.3125 
z
" id="DejaVuSans-51"/>
      </defs>
      <g transform="translate(241.468006 239.238437)scale(0.1 -0.1)">
       <use xlink:href="#DejaVuSans-51"/>
       <use x="63.623047" xlink:href="#DejaVuSans-48"/>
       <use x="127.246094" xlink:href="#DejaVuSans-48"/>
       <use x="190.869141" xlink:href="#DejaVuSans-48"/>
      </g>
     </g>
    </g>
    <g id="xtick_5">
     <g id="line2d_5">
      <g>
       <use style="stroke:#000000;stroke-width:0.8;" x="320.088591" xlink:href="#m72ae664b82" y="224.64"/>
      </g>
     </g>
     <g id="text_5">
      <!-- 4000 -->
      <defs>
       <path d="M 37.796875 64.3125 
L 12.890625 25.390625 
L 37.796875 25.390625 
z
M 35.203125 72.90625 
L 47.609375 72.90625 
L 47.609375 25.390625 
L 58.015625 25.390625 
L 58.015625 17.1875 
L 47.609375 17.1875 
L 47.609375 0 
L 37.796875 0 
L 37.796875 17.1875 
L 4.890625 17.1875 
L 4.890625 26.703125 
z
" id="DejaVuSans-52"/>
      </defs>
      <g transform="translate(307.363591 239.238437)scale(0.1 -0.1)">
       <use xlink:href="#DejaVuSans-52"/>
       <use x="63.623047" xlink:href="#DejaVuSans-48"/>
       <use x="127.246094" xlink:href="#DejaVuSans-48"/>
       <use x="190.869141" xlink:href="#DejaVuSans-48"/>
      </g>
     </g>
    </g>
    <g id="xtick_6">
     <g id="line2d_6">
      <g>
       <use style="stroke:#000000;stroke-width:0.8;" x="385.984176" xlink:href="#m72ae664b82" y="224.64"/>
      </g>
     </g>
     <g id="text_6">
      <!-- 5000 -->
      <defs>
       <path d="M 10.796875 72.90625 
L 49.515625 72.90625 
L 49.515625 64.59375 
L 19.828125 64.59375 
L 19.828125 46.734375 
Q 21.96875 47.46875 24.109375 47.828125 
Q 26.265625 48.1875 28.421875 48.1875 
Q 40.625 48.1875 47.75 41.5 
Q 54.890625 34.8125 54.890625 23.390625 
Q 54.890625 11.625 47.5625 5.09375 
Q 40.234375 -1.421875 26.90625 -1.421875 
Q 22.3125 -1.421875 17.546875 -0.640625 
Q 12.796875 0.140625 7.71875 1.703125 
L 7.71875 11.625 
Q 12.109375 9.234375 16.796875 8.0625 
Q 21.484375 6.890625 26.703125 6.890625 
Q 35.15625 6.890625 40.078125 11.328125 
Q 45.015625 15.765625 45.015625 23.390625 
Q 45.015625 31 40.078125 35.4375 
Q 35.15625 39.890625 26.703125 39.890625 
Q 22.75 39.890625 18.8125 39.015625 
Q 14.890625 38.140625 10.796875 36.28125 
z
" id="DejaVuSans-53"/>
      </defs>
      <g transform="translate(373.259176 239.238437)scale(0.1 -0.1)">
       <use xlink:href="#DejaVuSans-53"/>
       <use x="63.623047" xlink:href="#DejaVuSans-48"/>
       <use x="127.246094" xlink:href="#DejaVuSans-48"/>
       <use x="190.869141" xlink:href="#DejaVuSans-48"/>
      </g>
     </g>
    </g>
    <g id="text_7">
     <!-- Rollback sizes -->
     <defs>
      <path d="M 44.390625 34.1875 
Q 47.5625 33.109375 50.5625 29.59375 
Q 53.5625 26.078125 56.59375 19.921875 
L 66.609375 0 
L 56 0 
L 46.6875 18.703125 
Q 43.0625 26.03125 39.671875 28.421875 
Q 36.28125 30.8125 30.421875 30.8125 
L 19.671875 30.8125 
L 19.671875 0 
L 9.8125 0 
L 9.8125 72.90625 
L 32.078125 72.90625 
Q 44.578125 72.90625 50.734375 67.671875 
Q 56.890625 62.453125 56.890625 51.90625 
Q 56.890625 45.015625 53.6875 40.46875 
Q 50.484375 35.9375 44.390625 34.1875 
z
M 19.671875 64.796875 
L 19.671875 38.921875 
L 32.078125 38.921875 
Q 39.203125 38.921875 42.84375 42.21875 
Q 46.484375 45.515625 46.484375 51.90625 
Q 46.484375 58.296875 42.84375 61.546875 
Q 39.203125 64.796875 32.078125 64.796875 
z
" id="DejaVuSans-82"/>
      <path d="M 30.609375 48.390625 
Q 23.390625 48.390625 19.1875 42.75 
Q 14.984375 37.109375 14.984375 27.296875 
Q 14.984375 17.484375 19.15625 11.84375 
Q 23.34375 6.203125 30.609375 6.203125 
Q 37.796875 6.203125 41.984375 11.859375 
Q 46.1875 17.53125 46.1875 27.296875 
Q 46.1875 37.015625 41.984375 42.703125 
Q 37.796875 48.390625 30.609375 48.390625 
z
M 30.609375 56 
Q 42.328125 56 49.015625 48.375 
Q 55.71875 40.765625 55.71875 27.296875 
Q 55.71875 13.875 49.015625 6.21875 
Q 42.328125 -1.421875 30.609375 -1.421875 
Q 18.84375 -1.421875 12.171875 6.21875 
Q 5.515625 13.875 5.515625 27.296875 
Q 5.515625 40.765625 12.171875 48.375 
Q 18.84375 56 30.609375 56 
z
" id="DejaVuSans-111"/>
      <path d="M 9.421875 75.984375 
L 18.40625 75.984375 
L 18.40625 0 
L 9.421875 0 
z
" id="DejaVuSans-108"/>
      <path d="M 48.6875 27.296875 
Q 48.6875 37.203125 44.609375 42.84375 
Q 40.53125 48.484375 33.40625 48.484375 
Q 26.265625 48.484375 22.1875 42.84375 
Q 18.109375 37.203125 18.109375 27.296875 
Q 18.109375 17.390625 22.1875 11.75 
Q 26.265625 6.109375 33.40625 6.109375 
Q 40.53125 6.109375 44.609375 11.75 
Q 48.6875 17.390625 48.6875 27.296875 
z
M 18.109375 46.390625 
Q 20.953125 51.265625 25.265625 53.625 
Q 29.59375 56 35.59375 56 
Q 45.5625 56 51.78125 48.09375 
Q 58.015625 40.1875 58.015625 27.296875 
Q 58.015625 14.40625 51.78125 6.484375 
Q 45.5625 -1.421875 35.59375 -1.421875 
Q 29.59375 -1.421875 25.265625 0.953125 
Q 20.953125 3.328125 18.109375 8.203125 
L 18.109375 0 
L 9.078125 0 
L 9.078125 75.984375 
L 18.109375 75.984375 
z
" id="DejaVuSans-98"/>
      <path d="M 34.28125 27.484375 
Q 23.390625 27.484375 19.1875 25 
Q 14.984375 22.515625 14.984375 16.5 
Q 14.984375 11.71875 18.140625 8.90625 
Q 21.296875 6.109375 26.703125 6.109375 
Q 34.1875 6.109375 38.703125 11.40625 
Q 43.21875 16.703125 43.21875 25.484375 
L 43.21875 27.484375 
z
M 52.203125 31.203125 
L 52.203125 0 
L 43.21875 0 
L 43.21875 8.296875 
Q 40.140625 3.328125 35.546875 0.953125 
Q 30.953125 -1.421875 24.3125 -1.421875 
Q 15.921875 -1.421875 10.953125 3.296875 
Q 6 8.015625 6 15.921875 
Q 6 25.140625 12.171875 29.828125 
Q 18.359375 34.515625 30.609375 34.515625 
L 43.21875 34.515625 
L 43.21875 35.40625 
Q 43.21875 41.609375 39.140625 45 
Q 35.0625 48.390625 27.6875 48.390625 
Q 23 48.390625 18.546875 47.265625 
Q 14.109375 46.140625 10.015625 43.890625 
L 10.015625 52.203125 
Q 14.9375 54.109375 19.578125 55.046875 
Q 24.21875 56 28.609375 56 
Q 40.484375 56 46.34375 49.84375 
Q 52.203125 43.703125 52.203125 31.203125 
z
" id="DejaVuSans-97"/>
      <path d="M 48.78125 52.59375 
L 48.78125 44.1875 
Q 44.96875 46.296875 41.140625 47.34375 
Q 37.3125 48.390625 33.40625 48.390625 
Q 24.65625 48.390625 19.8125 42.84375 
Q 14.984375 37.3125 14.984375 27.296875 
Q 14.984375 17.28125 19.8125 11.734375 
Q 24.65625 6.203125 33.40625 6.203125 
Q 37.3125 6.203125 41.140625 7.25 
Q 44.96875 8.296875 48.78125 10.40625 
L 48.78125 2.09375 
Q 45.015625 0.34375 40.984375 -0.53125 
Q 36.96875 -1.421875 32.421875 -1.421875 
Q 20.0625 -1.421875 12.78125 6.34375 
Q 5.515625 14.109375 5.515625 27.296875 
Q 5.515625 40.671875 12.859375 48.328125 
Q 20.21875 56 33.015625 56 
Q 37.15625 56 41.109375 55.140625 
Q 45.0625 54.296875 48.78125 52.59375 
z
" id="DejaVuSans-99"/>
      <path d="M 9.078125 75.984375 
L 18.109375 75.984375 
L 18.109375 31.109375 
L 44.921875 54.6875 
L 56.390625 54.6875 
L 27.390625 29.109375 
L 57.625 0 
L 45.90625 0 
L 18.109375 26.703125 
L 18.109375 0 
L 9.078125 0 
z
" id="DejaVuSans-107"/>
      <path id="DejaVuSans-32"/>
      <path d="M 44.28125 53.078125 
L 44.28125 44.578125 
Q 40.484375 46.53125 36.375 47.5 
Q 32.28125 48.484375 27.875 48.484375 
Q 21.1875 48.484375 17.84375 46.4375 
Q 14.5 44.390625 14.5 40.28125 
Q 14.5 37.15625 16.890625 35.375 
Q 19.28125 33.59375 26.515625 31.984375 
L 29.59375 31.296875 
Q 39.15625 29.25 43.1875 25.515625 
Q 47.21875 21.78125 47.21875 15.09375 
Q 47.21875 7.46875 41.1875 3.015625 
Q 35.15625 -1.421875 24.609375 -1.421875 
Q 20.21875 -1.421875 15.453125 -0.5625 
Q 10.6875 0.296875 5.421875 2 
L 5.421875 11.28125 
Q 10.40625 8.6875 15.234375 7.390625 
Q 20.0625 6.109375 24.8125 6.109375 
Q 31.15625 6.109375 34.5625 8.28125 
Q 37.984375 10.453125 37.984375 14.40625 
Q 37.984375 18.0625 35.515625 20.015625 
Q 33.0625 21.96875 24.703125 23.78125 
L 21.578125 24.515625 
Q 13.234375 26.265625 9.515625 29.90625 
Q 5.8125 33.546875 5.8125 39.890625 
Q 5.8125 47.609375 11.28125 51.796875 
Q 16.75 56 26.8125 56 
Q 31.78125 56 36.171875 55.265625 
Q 40.578125 54.546875 44.28125 53.078125 
z
" id="DejaVuSans-115"/>
      <path d="M 9.421875 54.6875 
L 18.40625 54.6875 
L 18.40625 0 
L 9.421875 0 
z
M 9.421875 75.984375 
L 18.40625 75.984375 
L 18.40625 64.59375 
L 9.421875 64.59375 
z
" id="DejaVuSans-105"/>
      <path d="M 5.515625 54.6875 
L 48.1875 54.6875 
L 48.1875 46.484375 
L 14.40625 7.171875 
L 48.1875 7.171875 
L 48.1875 0 
L 4.296875 0 
L 4.296875 8.203125 
L 38.09375 47.515625 
L 5.515625 47.515625 
z
" id="DejaVuSans-122"/>
      <path d="M 56.203125 29.59375 
L 56.203125 25.203125 
L 14.890625 25.203125 
Q 15.484375 15.921875 20.484375 11.0625 
Q 25.484375 6.203125 34.421875 6.203125 
Q 39.59375 6.203125 44.453125 7.46875 
Q 49.3125 8.734375 54.109375 11.28125 
L 54.109375 2.78125 
Q 49.265625 0.734375 44.1875 -0.34375 
Q 39.109375 -1.421875 33.890625 -1.421875 
Q 20.796875 -1.421875 13.15625 6.1875 
Q 5.515625 13.8125 5.515625 26.8125 
Q 5.515625 40.234375 12.765625 48.109375 
Q 20.015625 56 32.328125 56 
Q 43.359375 56 49.78125 48.890625 
Q 56.203125 41.796875 56.203125 29.59375 
z
M 47.21875 32.234375 
Q 47.125 39.59375 43.09375 43.984375 
Q 39.0625 48.390625 32.421875 48.390625 
Q 24.90625 48.390625 20.390625 44.140625 
Q 15.875 39.890625 15.1875 32.171875 
z
" id="DejaVuSans-101"/>
     </defs>
     <g transform="translate(188.826562 252.916562)scale(0.1 -0.1)">
      <use xlink:href="#DejaVuSans-82"/>
      <use x="69.419922" xlink:href="#DejaVuSans-111"/>
      <use x="130.601562" xlink:href="#DejaVuSans-108"/>
      <use x="158.384766" xlink:href="#DejaVuSans-108"/>
      <use x="186.167969" xlink:href="#DejaVuSans-98"/>
      <use x="249.644531" xlink:href="#DejaVuSans-97"/>
      <use x="310.923828" xlink:href="#DejaVuSans-99"/>
      <use x="365.904297" xlink:href="#DejaVuSans-107"/>
      <use x="423.814453" xlink:href="#DejaVuSans-32"/>
      <use x="455.601562" xlink:href="#DejaVuSans-115"/>
      <use x="507.701172" xlink:href="#DejaVuSans-105"/>
      <use x="535.484375" xlink:href="#DejaVuSans-122"/>
      <use x="587.974609" xlink:href="#DejaVuSans-101"/>
      <use x="649.498047" xlink:href="#DejaVuSans-115"/>
     </g>
    </g>
   </g>
   <g id="matplotlib.axis_2">
    <g id="ytick_1">
     <g id="line2d_7">
      <defs>
       <path d="M 0 0 
L -3.5 0 
" id="md535f0a6c3" style="stroke:#000000;stroke-width:0.8;"/>
      </defs>
      <g>
       <use style="stroke:#000000;stroke-width:0.8;" x="56.50625" xlink:href="#md535f0a6c3" y="224.64"/>
      </g>
     </g>
     <g id="text_8">
      <!-- 0.000 -->
      <defs>
       <path d="M 10.6875 12.40625 
L 21 12.40625 
L 21 0 
L 10.6875 0 
z
" id="DejaVuSans-46"/>
      </defs>
      <g transform="translate(20.878125 228.439219)scale(0.1 -0.1)">
       <use xlink:href="#DejaVuSans-48"/>
       <use x="63.623047" xlink:href="#DejaVuSans-46"/>
       <use x="95.410156" xlink:href="#DejaVuSans-48"/>
       <use x="159.033203" xlink:href="#DejaVuSans-48"/>
       <use x="222.65625" xlink:href="#DejaVuSans-48"/>
      </g>
     </g>
    </g>
    <g id="ytick_2">
     <g id="line2d_8">
      <g>
       <use style="stroke:#000000;stroke-width:0.8;" x="56.50625" xlink:href="#md535f0a6c3" y="196.315477"/>
      </g>
     </g>
     <g id="text_9">
      <!-- 0.002 -->
      <g transform="translate(20.878125 200.114695)scale(0.1 -0.1)">
       <use xlink:href="#DejaVuSans-48"/>
       <use x="63.623047" xlink:href="#DejaVuSans-46"/>
       <use x="95.410156" xlink:href="#DejaVuSans-48"/>
       <use x="159.033203" xlink:href="#DejaVuSans-48"/>
       <use x="222.65625" xlink:href="#DejaVuSans-50"/>
      </g>
     </g>
    </g>
    <g id="ytick_3">
     <g id="line2d_9">
      <g>
       <use style="stroke:#000000;stroke-width:0.8;" x="56.50625" xlink:href="#md535f0a6c3" y="167.990953"/>
      </g>
     </g>
     <g id="text_10">
      <!-- 0.004 -->
      <g transform="translate(20.878125 171.790172)scale(0.1 -0.1)">
       <use xlink:href="#DejaVuSans-48"/>
       <use x="63.623047" xlink:href="#DejaVuSans-46"/>
       <use x="95.410156" xlink:href="#DejaVuSans-48"/>
       <use x="159.033203" xlink:href="#DejaVuSans-48"/>
       <use x="222.65625" xlink:href="#DejaVuSans-52"/>
      </g>
     </g>
    </g>
    <g id="ytick_4">
     <g id="line2d_10">
      <g>
       <use style="stroke:#000000;stroke-width:0.8;" x="56.50625" xlink:href="#md535f0a6c3" y="139.66643"/>
      </g>
     </g>
     <g id="text_11">
      <!-- 0.006 -->
      <defs>
       <path d="M 33.015625 40.375 
Q 26.375 40.375 22.484375 35.828125 
Q 18.609375 31.296875 18.609375 23.390625 
Q 18.609375 15.53125 22.484375 10.953125 
Q 26.375 6.390625 33.015625 6.390625 
Q 39.65625 6.390625 43.53125 10.953125 
Q 47.40625 15.53125 47.40625 23.390625 
Q 47.40625 31.296875 43.53125 35.828125 
Q 39.65625 40.375 33.015625 40.375 
z
M 52.59375 71.296875 
L 52.59375 62.3125 
Q 48.875 64.0625 45.09375 64.984375 
Q 41.3125 65.921875 37.59375 65.921875 
Q 27.828125 65.921875 22.671875 59.328125 
Q 17.53125 52.734375 16.796875 39.40625 
Q 19.671875 43.65625 24.015625 45.921875 
Q 28.375 48.1875 33.59375 48.1875 
Q 44.578125 48.1875 50.953125 41.515625 
Q 57.328125 34.859375 57.328125 23.390625 
Q 57.328125 12.15625 50.6875 5.359375 
Q 44.046875 -1.421875 33.015625 -1.421875 
Q 20.359375 -1.421875 13.671875 8.265625 
Q 6.984375 17.96875 6.984375 36.375 
Q 6.984375 53.65625 15.1875 63.9375 
Q 23.390625 74.21875 37.203125 74.21875 
Q 40.921875 74.21875 44.703125 73.484375 
Q 48.484375 72.75 52.59375 71.296875 
z
" id="DejaVuSans-54"/>
      </defs>
      <g transform="translate(20.878125 143.465648)scale(0.1 -0.1)">
       <use xlink:href="#DejaVuSans-48"/>
       <use x="63.623047" xlink:href="#DejaVuSans-46"/>
       <use x="95.410156" xlink:href="#DejaVuSans-48"/>
       <use x="159.033203" xlink:href="#DejaVuSans-48"/>
       <use x="222.65625" xlink:href="#DejaVuSans-54"/>
      </g>
     </g>
    </g>
    <g id="ytick_5">
     <g id="line2d_11">
      <g>
       <use style="stroke:#000000;stroke-width:0.8;" x="56.50625" xlink:href="#md535f0a6c3" y="111.341906"/>
      </g>
     </g>
     <g id="text_12">
      <!-- 0.008 -->
      <defs>
       <path d="M 31.78125 34.625 
Q 24.75 34.625 20.71875 30.859375 
Q 16.703125 27.09375 16.703125 20.515625 
Q 16.703125 13.921875 20.71875 10.15625 
Q 24.75 6.390625 31.78125 6.390625 
Q 38.8125 6.390625 42.859375 10.171875 
Q 46.921875 13.96875 46.921875 20.515625 
Q 46.921875 27.09375 42.890625 30.859375 
Q 38.875 34.625 31.78125 34.625 
z
M 21.921875 38.8125 
Q 15.578125 40.375 12.03125 44.71875 
Q 8.5 49.078125 8.5 55.328125 
Q 8.5 64.0625 14.71875 69.140625 
Q 20.953125 74.21875 31.78125 74.21875 
Q 42.671875 74.21875 48.875 69.140625 
Q 55.078125 64.0625 55.078125 55.328125 
Q 55.078125 49.078125 51.53125 44.71875 
Q 48 40.375 41.703125 38.8125 
Q 48.828125 37.15625 52.796875 32.3125 
Q 56.78125 27.484375 56.78125 20.515625 
Q 56.78125 9.90625 50.3125 4.234375 
Q 43.84375 -1.421875 31.78125 -1.421875 
Q 19.734375 -1.421875 13.25 4.234375 
Q 6.78125 9.90625 6.78125 20.515625 
Q 6.78125 27.484375 10.78125 32.3125 
Q 14.796875 37.15625 21.921875 38.8125 
z
M 18.3125 54.390625 
Q 18.3125 48.734375 21.84375 45.5625 
Q 25.390625 42.390625 31.78125 42.390625 
Q 38.140625 42.390625 41.71875 45.5625 
Q 45.3125 48.734375 45.3125 54.390625 
Q 45.3125 60.0625 41.71875 63.234375 
Q 38.140625 66.40625 31.78125 66.40625 
Q 25.390625 66.40625 21.84375 63.234375 
Q 18.3125 60.0625 18.3125 54.390625 
z
" id="DejaVuSans-56"/>
      </defs>
      <g transform="translate(20.878125 115.141125)scale(0.1 -0.1)">
       <use xlink:href="#DejaVuSans-48"/>
       <use x="63.623047" xlink:href="#DejaVuSans-46"/>
       <use x="95.410156" xlink:href="#DejaVuSans-48"/>
       <use x="159.033203" xlink:href="#DejaVuSans-48"/>
       <use x="222.65625" xlink:href="#DejaVuSans-56"/>
      </g>
     </g>
    </g>
    <g id="ytick_6">
     <g id="line2d_12">
      <g>
       <use style="stroke:#000000;stroke-width:0.8;" x="56.50625" xlink:href="#md535f0a6c3" y="83.017383"/>
      </g>
     </g>
     <g id="text_13">
      <!-- 0.010 -->
      <g transform="translate(20.878125 86.816601)scale(0.1 -0.1)">
       <use xlink:href="#DejaVuSans-48"/>
       <use x="63.623047" xlink:href="#DejaVuSans-46"/>
       <use x="95.410156" xlink:href="#DejaVuSans-48"/>
       <use x="159.033203" xlink:href="#DejaVuSans-49"/>
       <use x="222.65625" xlink:href="#DejaVuSans-48"/>
      </g>
     </g>
    </g>
    <g id="ytick_7">
     <g id="line2d_13">
      <g>
       <use style="stroke:#000000;stroke-width:0.8;" x="56.50625" xlink:href="#md535f0a6c3" y="54.692859"/>
      </g>
     </g>
     <g id="text_14">
      <!-- 0.012 -->
      <g transform="translate(20.878125 58.492078)scale(0.1 -0.1)">
       <use xlink:href="#DejaVuSans-48"/>
       <use x="63.623047" xlink:href="#DejaVuSans-46"/>
       <use x="95.410156" xlink:href="#DejaVuSans-48"/>
       <use x="159.033203" xlink:href="#DejaVuSans-49"/>
       <use x="222.65625" xlink:href="#DejaVuSans-50"/>
      </g>
     </g>
    </g>
    <g id="ytick_8">
     <g id="line2d_14">
      <g>
       <use style="stroke:#000000;stroke-width:0.8;" x="56.50625" xlink:href="#md535f0a6c3" y="26.368336"/>
      </g>
     </g>
     <g id="text_15">
      <!-- 0.014 -->
      <g transform="translate(20.878125 30.167555)scale(0.1 -0.1)">
       <use xlink:href="#DejaVuSans-48"/>
       <use x="63.623047" xlink:href="#DejaVuSans-46"/>
       <use x="95.410156" xlink:href="#DejaVuSans-48"/>
       <use x="159.033203" xlink:href="#DejaVuSans-49"/>
       <use x="222.65625" xlink:href="#DejaVuSans-52"/>
      </g>
     </g>
    </g>
    <g id="text_16">
     <!-- Density -->
     <defs>
      <path d="M 19.671875 64.796875 
L 19.671875 8.109375 
L 31.59375 8.109375 
Q 46.6875 8.109375 53.6875 14.9375 
Q 60.6875 21.78125 60.6875 36.53125 
Q 60.6875 51.171875 53.6875 57.984375 
Q 46.6875 64.796875 31.59375 64.796875 
z
M 9.8125 72.90625 
L 30.078125 72.90625 
Q 51.265625 72.90625 61.171875 64.09375 
Q 71.09375 55.28125 71.09375 36.53125 
Q 71.09375 17.671875 61.125 8.828125 
Q 51.171875 0 30.078125 0 
L 9.8125 0 
z
" id="DejaVuSans-68"/>
      <path d="M 54.890625 33.015625 
L 54.890625 0 
L 45.90625 0 
L 45.90625 32.71875 
Q 45.90625 40.484375 42.875 44.328125 
Q 39.84375 48.1875 33.796875 48.1875 
Q 26.515625 48.1875 22.3125 43.546875 
Q 18.109375 38.921875 18.109375 30.90625 
L 18.109375 0 
L 9.078125 0 
L 9.078125 54.6875 
L 18.109375 54.6875 
L 18.109375 46.1875 
Q 21.34375 51.125 25.703125 53.5625 
Q 30.078125 56 35.796875 56 
Q 45.21875 56 50.046875 50.171875 
Q 54.890625 44.34375 54.890625 33.015625 
z
" id="DejaVuSans-110"/>
      <path d="M 18.3125 70.21875 
L 18.3125 54.6875 
L 36.8125 54.6875 
L 36.8125 47.703125 
L 18.3125 47.703125 
L 18.3125 18.015625 
Q 18.3125 11.328125 20.140625 9.421875 
Q 21.96875 7.515625 27.59375 7.515625 
L 36.8125 7.515625 
L 36.8125 0 
L 27.59375 0 
Q 17.1875 0 13.234375 3.875 
Q 9.28125 7.765625 9.28125 18.015625 
L 9.28125 47.703125 
L 2.6875 47.703125 
L 2.6875 54.6875 
L 9.28125 54.6875 
L 9.28125 70.21875 
z
" id="DejaVuSans-116"/>
      <path d="M 32.171875 -5.078125 
Q 28.375 -14.84375 24.75 -17.8125 
Q 21.140625 -20.796875 15.09375 -20.796875 
L 7.90625 -20.796875 
L 7.90625 -13.28125 
L 13.1875 -13.28125 
Q 16.890625 -13.28125 18.9375 -11.515625 
Q 21 -9.765625 23.484375 -3.21875 
L 25.09375 0.875 
L 2.984375 54.6875 
L 12.5 54.6875 
L 29.59375 11.921875 
L 46.6875 54.6875 
L 56.203125 54.6875 
z
" id="DejaVuSans-121"/>
     </defs>
     <g transform="translate(14.798437 134.928594)rotate(-90)scale(0.1 -0.1)">
      <use xlink:href="#DejaVuSans-68"/>
      <use x="77.001953" xlink:href="#DejaVuSans-101"/>
      <use x="138.525391" xlink:href="#DejaVuSans-110"/>
      <use x="201.904297" xlink:href="#DejaVuSans-115"/>
      <use x="254.003906" xlink:href="#DejaVuSans-105"/>
      <use x="281.787109" xlink:href="#DejaVuSans-116"/>
      <use x="320.996094" xlink:href="#DejaVuSans-121"/>
     </g>
    </g>
   </g>
   <g id="patch_3">
    <path d="M 56.50625 224.64 
L 56.50625 7.2 
" style="fill:none;stroke:#000000;stroke-linecap:square;stroke-linejoin:miter;stroke-width:0.8;"/>
   </g>
   <g id="patch_4">
    <path d="M 391.30625 224.64 
L 391.30625 7.2 
" style="fill:none;stroke:#000000;stroke-linecap:square;stroke-linejoin:miter;stroke-width:0.8;"/>
   </g>
   <g id="patch_5">
    <path d="M 56.50625 224.64 
L 391.30625 224.64 
" style="fill:none;stroke:#000000;stroke-linecap:square;stroke-linejoin:miter;stroke-width:0.8;"/>
   </g>
   <g id="patch_6">
    <path d="M 56.50625 7.2 
L 391.30625 7.2 
" style="fill:none;stroke:#000000;stroke-linecap:square;stroke-linejoin:miter;stroke-width:0.8;"/>
   </g>
  </g>
 </g>
 <defs>
  <clipPath id="pd7883ffb3d">
   <rect height="217.44" width="334.8" x="56.50625" y="7.2"/>
  </clipPath>
 </defs>
</svg>